<?xml version="1.0" encoding="utf-8"?>
<svg version="1.1" id="Layer_1"
xmlns="http://www.w3.org/2000/svg"
xmlns:xlink="http://www.w3.org/1999/xlink"
xmlns:author="http://www.sothink.com"
width="118px" height="88px"
xml:space="preserve">
<g id="8" transform="matrix(1, 0, 0, 1, -1, 0)">
<path style="fill:#FFFFFF;fill-opacity:0.101961" d="M104,11Q104.5 11 104.75 11.25L105 12L106 12L106.75 12.25L107 13L108 13L108.75 13.25L109 14L110 14Q110.5 14 110.75 14.25L111 15L111.75 15.25L112 16L112.75 16.25L113 17Q113.5 17 113.75 17.25L114 18L114.75 18.25L115 19L115.75 19.25L116 20L116 21Q116.5 21 116.75 21.25L117 22L117 23L117 24L117.8 25.1L118 26L118.05 27Q118.75 31.75 117 34L117 35L117 36L116.75 36.75L116 37L116 38L115.75 38.75L115 39Q115 39.5 114.8 39.6Q112.9 40.65 113 39L113 38L113 36L112.25 35.75Q112 35.5 112 35L111 35L109 35L108 35L107 35L106.75 35.75L106 36L105.75 36.75L105 37L104 37L104 38L103.75 38.75L103 39L102.75 39.75L102 40L101.75 40.75L101 41L101 42L100.75 42.75L100 43L100 44L99.75 44.75L99 45L99 46L98.75 46.75L98 47L98 48L97.75 48.75L97 49L97 50L96.75 50.75L96 51L96 52L95.75 52.75L95 53L94.75 53.75L94 54L94 55L93.75 55.75L93 56L93 57L92.75 57.75L92 58L92 59L91.75 59.75L91 60L90.75 60.75L90 61L90 62L89.75 62.75L89 63L88.75 63.75L88 64L87.75 64.75L87 65L87 66L86.75 66.75L86 67L85.75 67.75L85 68L84.75 68.75L84 69L83.75 69.75L83 70L83 71L86 71L87 71L87.75 71.25L88 72L89 72Q89.5 72 89.75 72.25L90 73L91 73L91.75 73.25L92 74L92 75Q92.5 75 92.75 75.25L93 76L93.75 76.25L94 77L94 78L94 81L94 82L94 83L93.75 83.75L93 84L93 84.5Q91.3 83.7 92 80L92 79L91.25 78.75Q91 78.5 91 78L91 77L90 77L89.25 76.75Q89 76.5 89 76L88 76L87.25 75.75L87 75L86 75L81 75L80.75 75.75L80 76L79 76L78 76L77.75 76.75L77 77L76 77L75.75 77.75L75 78L74 78L73.75 78.75L73 79L72 79L71.75 79.75L71 80L70.75 80.75L70 81L69 81L68.75 81.75L68 82L67.75 82.75L67 83L66.75 83.75L66 84L65.75 84.75L65 85L64.75 85.85Q63.95 86.95 62 87L61.85 87.55Q58.3 88.7 57 87L56 87L55.25 86.75Q55 86.5 55 86L54.25 85.75L53 84L52.25 83.75Q52 83.5 52 83L51.25 82.75L51 82L50.1 81.8Q49.5 81.5 49 81L48.25 80.75L48 80L47.1 79.8L46 79L45.25 78.75L45 78L44 78L43.25 77.75Q43 77.5 43 77L42 77L41.25 76.75Q41 76.5 41 76L40.1 75.8Q39.5 75.5 39 75L38 75L32 75L31.75 75.75L31 76L30 76L29.75 76.75L29 77L28.75 77.75L28 78L27.75 78.75L27 79L27 80L26.9 81Q25.5 88.15 25 77L26 77L26 76L26 75L27 75L27 74L28 74L28 73Q29.05 72.05 31 72L32 72L32 71L36 71L37 71L37 70L36 70L35.25 69.75Q35 69.5 35 69L34.25 68.75Q34 68.5 34 68L33.25 67.75L33 67L33 66L32.25 65.75Q32 65.5 32 65L31.25 64.75Q31 64.5 31 64L30.25 63.75L30 63L30 62L29.25 61.75Q29 61.5 29 61L28.25 60.75Q28 60.5 28 60L28 59L27.25 58.75L27 58L26.25 57.75Q26 57.5 26 57L26 56L25.25 55.75Q25 55.5 25 55L25 54L24.25 53.75L24 53L24 52L23.25 51.75Q23 51.5 23 51L23 50L22.25 49.75Q22 49.5 22 49L21.25 48.75L21 48L21 47L20.25 46.75Q20 46.5 20 46L20 45L19.25 44.75Q19 44.5 19 44L19 43L18.25 42.75L18 42L18 41L17.25 40.75Q17 40.5 17 40L16.25 39.75Q16 39.5 16 39L16 38L15.25 37.75L15 37L14.25 36.75Q14 36.5 14 36L13 36L12.25 35.75L12 35L11 35L10 35L8 35L7 35L7 36L6.75 36.75L6 37L6 38L6 39L5.75 39.75L5 40L4.25 39.75Q4 39.5 4 39L4 38L3.25 37.75L3 37L2.25 36.75Q2 36.5 2 36L2 35L2 34L2 33L1.5 32.9Q1 30 1 27L1 26L1 25L2 25L2 24L2 23L2 22L3 22L3 21L3 20L4 20L4 19L4 18L5 18L5 17L6 17L6 16L7 16L7 15L8 15L8 14L9 14L10 14L10 13L11 13L12 13L12 12L13 12L14 12L14 11L15 11L16 11L17 11L18 11L19 11L20 11L21 11L22 11L22.75 11.25L23 12L24 12L24.75 12.25L25 13L26 13Q26.5 13 26.75 13.25L27 14Q28.7 13.2 28.1 10L28 9L28 8L29 8L29 7L29 6L29 5L30 5L30 4L30 3L31 3L31 2L32 2L32 1L33 1L33 0L34 0L41 0L42 0L42.75 0.25L43 1L44 1Q44.5 1 44.75 1.25L45 2L46 2L47 2Q47.5 2 47.75 2.25L48 3L49 3L50 3Q50.5 3 50.75 3.25L51 4L53 4L54 4L55 4L56 4L64 4L65 4L67 4L68 4L68 3L69 3L70 3L71 3L71 2L72 2L73 2L74 2L74 1L75 1L76 1L77 1L77 0L78 0L79 0L84 0L85 0L85.75 0.25L86 1Q86.5 1 86.75 1.25L87 2L87.75 2.25L88 3L88.75 3.25L89 4L89 5Q89.5 5 89.75 5.25L90 6L90 7L90.8 8.1L91 9L91 13L91 14L92 14L92 13L93 13L94 13L94 12L95 12L96 12L96 11L97 11L98 11L99 11L100 11L101 11L102 11L103 11L104 11" />
</g>
</svg>
