<?xml version="1.0" encoding="utf-8"?>
<svg version="1.1" id="Layer_1"
xmlns="http://www.w3.org/2000/svg"
xmlns:xlink="http://www.w3.org/1999/xlink"
xmlns:author="http://www.sothink.com"
width="178px" height="113px"
xml:space="preserve">
<g id="7" transform="matrix(1, 0, 0, 1, -132, -60)">
<path style="fill:#FFFFFF;fill-opacity:0.101961" d="M265,61L265 60L266 60Q266.5 60 266.75 60.25L267 61L267 62L266.75 62.75L266 63L266 64L265.75 64.75L265 65L265 66L264.75 66.75L264 67L264 68L264 69L263.75 69.75L263 70L263 71L263 72L262.75 72.75L262 73L262 74L261.75 74.75L261 75L261 76L260.75 76.75L260 77L260 78L259.75 78.75L259 79L259 80L258.75 80.75L258 81L258 82L257.75 82.75L257 83L256.75 83.75L256 84L255.75 84.75L255 85L254.75 85.75L254 86L253.75 86.75L253 87L252.75 87.75L252 88L251.75 88.75L251 89L250.75 89.75L250 90L249 90L248.75 90.75L248 91L247 91L246.75 91.75L246 92L245 92L244.75 92.75L244 93L243 93L242 93L241.8 93.6Q241 94 240 94L239 94L238.8 94.6Q238 95 237 95L236 95L235 95L234 95L234 95.5Q233.5 95.5 233 95L232 95L223 95L222 95L221 95L220 95L220 94.5L217.5 94.5Q224.25 89.6 232 87.5L238.5 84.5L238.6 84.1Q246.9 73.35 253.9 62L254 62L255 62L256 62L257 62L257 61L258 61L259 61L260 61L262 61L263 61L264 61L265 61M167,70L168 70L169 70L170 70Q170.5 70 170.75 70.25L171 71L172 71L173 71Q173.5 71 173.75 71.25L174 72L175 72L176 72L177 72L177.75 72.25L178 73L179 73L180 73L180.75 73.25L181 74L182 74L183 74L183.75 74.25L184 75L185 75Q185.5 75 185.75 75.25L186 76L187 76L187.75 76.25L188 77L189 77L189.75 77.25L190 78L191 78Q191.5 78 191.75 78.25L192 79L192.75 79.25L193 80L194 80Q194.5 80 194.75 80.25L195 81L195.75 81.25L196 82L196.75 82.25L197 83L198 83L198.75 83.25L199 84L199.75 84.25L200 85Q200.5 85 200.75 85.25L201 86L201.75 86.25L202 87L202.75 87.25L203 88Q203.5 88 203.75 88.25L204 89L204.75 89.25L205 90L205.75 90.25L206 91L206 92Q206.5 92 206.75 92.25L207 93L207.75 93.25L208 94L208 95L208.75 95.25L209 96Q209.5 96 209.75 96.25L210 97L210 98L210.75 98.25L211 99L211 100L211 101L211.8 102.1L212 103L212 104L212 105L212 106L212 107L212 109L212 110L212 111L212 112L212 113L212 113.5L208.1 113.5L208 113L207 113L206 113L205.8 113.6Q205 114 204 114L203 114L202.8 114.6Q202 115 201 115L200 115L199 115L198 115L196 115L195.75 115.75L195 116L194 116L192 116L191 116L188 116L187 116L185 116L184.1 115.8Q183.5 115.5 183 115L182 115L181 115L180 115L179 115L178 115L177.1 114.8L176 114L175 114L174 114L173 114L172.25 113.75Q172 113.5 172 113L171 113L170 113L169.25 112.75Q169 112.5 169 112L168 112L167 112L166.25 111.75Q166 111.5 166 111L165 111L164.25 110.75Q164 110.5 164 110L163 110L162.25 109.75L162 109L161 109L160.25 108.75Q160 108.5 160 108L159.25 107.75L159 107L158.25 106.75Q158 106.5 158 106L157 106L156.25 105.75L156 105L155.25 104.75Q155 104.5 155 104L154.25 103.75Q154 103.5 154 103L153.25 102.75L153 102L152.25 101.75Q152 101.5 152 101L151.25 100.75Q151 100.5 151 100L150.25 99.75L150 99L150 98L149.25 97.75Q149 97.5 149 97L148.25 96.75Q148 96.5 148 96L147.25 95.75L147 95L147 94L146.25 93.75Q146 93.5 146 93L146 92L145.25 91.75Q145 91.5 145 91L144.25 90.75L144 90L144 89L143.25 88.75Q143 88.5 143 88L143 87L142.25 86.75Q142 86.5 142 86L142 85L141.25 84.75L141 84L141 83L140.25 82.75Q140 82.5 140 82L140 81L140 80L139.25 79.75Q139 79.5 139 79L139 78L138.25 77.75L138 77L137.25 76.75Q137 76.5 137 76L137 75L136.25 74.75Q136 74.5 136 74L136 73L135.25 72.75L135 72L135 71L134.25 70.75Q134 70.5 134 70L134 69L133.25 68.75Q133 68.5 133 68L132.25 67.75L132 67L133 67L133 66L134.8 66.4L135 67L136 67L137 67L140 67L141 67L147 67L148 67Q149.5 67 150.85 67.45L151 68L152 68L153 68L156 68L157 68L158 68L159 68L159.75 68.25L160 69L162 69L163 69L164 69L165 69L166.8 69.4L167 70M239,104L239 103L240 103L241 103L242 103L242 102L243 102L244 102L245 102L246 102L246 101L247 101L248 101L249 101L250 101L251 101L251 100L253 100L254 100L264 100L265 100L267.85 100.45L268 101L271 101L272 101L273 101L274 101L274.75 101.25L275 102L277 102L278 102L279 102L280 102L282.85 102.45L283 103L284 103L285 103L286 103L286.75 103.25L287 104L288 104L289 104L289.75 104.25L290 105L291 105L292 105L293 105Q293.5 105 293.75 105.25L294 106L295 106L296 106L297 106L297.75 106.25L298 107L299 107L300 107L300.75 107.25L301 108L302 108L303 108L304.8 108.4L305 109L306 109L307.8 109.4L308 110L309 110Q310.65 109.9 309.6 111.8L309 112L308 112L307.75 112.75L307 113L306.75 113.75L306 114L305.75 114.75L305 115L304.75 115.75L304 116L303.75 116.75L303 117L302.75 117.75L302 118L301 118L300.75 118.75L300 119L299.75 119.75L299 120L298.75 120.75L298 121L297.75 121.75L297 122L296.75 122.75L296 123L295.75 123.75L295 124L294.75 124.75L294 125L293.75 125.75L293 126L292.75 126.75L292 127L291.75 127.75L291 128L290.75 128.75L290 129L289.75 129.75L289 130L288.75 130.75L288 131L287.75 131.75L287 132L286.75 132.75L286 133L285.75 133.75L285 134L284 134L283.75 134.75L283 135L282.75 135.75L282 136L281.75 136.75L281 137L280 137L279.75 137.75L279 138L278 138L277.75 138.75L277 139L276 139L275.75 139.75L275 140L274 140L273.75 140.75L273 141L272 141L271 141L270.75 141.75L270 142L269 142L268 142L267.75 142.75L267 143L266 143L264 143L263.75 143.75L263 144L262 144L253 144L252.05 144.1Q249.9 144.65 250 143L249 143L248 143L247 143L245 143L244.25 142.75Q244 142.5 244 142L243 142L242 142L241 142L240.25 141.75L240 141L239 141L238 141L237.1 140.8L236 140L235 140L234 140L233.25 139.75Q233 139.5 233 139L232 139L231.25 138.75L231 138L230 138L229 138L228.25 137.75L228 137L227 137L226.25 136.75Q226 136.5 226 136L225 136L224.25 135.75Q224 135.5 224 135L223.25 134.75Q223 134.5 223 134L222 134L221.25 133.75Q221 133.5 221 133L220.25 132.75Q220 132.5 220 132L219.25 131.75L219 131L218 131L217 131L216.5 131L216.5 123.5L216 123.5L216 123L216 122L216 121L216 120.5L216 120L217 120L217 119L217 118L218 118L218 117L219 117L219 116L219 115L220 115L220 114L221 114L221 113L222 113L222 112L223 112L224 112L224 111L225 111L225 110L226 110L226 109L227 109L228 109L228 108L229 108L230 108L230 107L231 107L231 106L232 106L233 106L234 106L234 105L235 105L236 105L236 104L237 104L238 104L239 104M220,148L220 147L221 147L222 147L223 147L223 146L224 146L225 146L226 146L227 146L228 146L228 145L231 145L232 145L237 145L238 145L241.9 145.45L242 146L243 146L244 146L245 146Q245.5 146 245.75 146.25L246 147L247 147L248 147Q248.5 147 248.75 147.25L249 148L250 148L250.75 148.25L251 149L252 149L252.75 149.25L253 150L254 150Q254.5 150 254.75 150.25L255 151L255.75 151.25L256 152L257 152Q257.5 152 257.75 152.25L258 153L258.75 153.25L259 154L259.75 154.25L260 155Q260.5 155 260.75 155.25L261 156L261.75 156.25L262 157L262.75 157.25L263 158Q263.5 158 263.75 158.25L264 159L264.75 159.25L265 160L265.75 160.25L266 161L266 162Q266.5 162 266.75 162.25L267 163L267 164Q268.7 164.3 267.6 166.8L267 167L267 168L267 169L266.75 169.75L266 170L265.75 170.75L265 171L264 171L263.75 171.75L263 172L262 172L261.85 172.55Q257.75 173.7 256 172L255 172L254 172L253.25 171.75Q253 171.5 253 171L252 171L251.25 170.75Q251 170.5 251 170L250 170L249.25 169.75L249 169L248.25 168.75Q248 168.5 248 168L248 167L247.25 166.75Q247 166.5 247 166L246.25 165.75L246 165L245.25 164.75Q245 164.5 245 164L244.25 163.75Q244 163.5 244 163L243.25 162.75L243 162L242 162L241.25 161.75Q241 161.5 241 161L240.25 160.75L240 160L239.25 159.75Q239 159.5 239 159L238.25 158.75Q238 158.5 238 158L237 158L236.25 157.75Q236 157.5 236 157L235.25 156.75Q235 156.5 235 156L234 156L233.25 155.75Q233 155.5 233 155L232 155L231.25 154.75L231 154L230 154L229 154L228.25 153.75L228 153L227 153L226 153L221 153L220 153Q220 153.5 219.8 153.6Q219 154 218 154L217 154L216.75 154.75L216 155L215.75 155.75L215 156L214.75 156.75L214 157L213.75 157.75L213 158L212.75 158.75L212 159L212 158L212 152L212 151L213 151L214 151L214 150L215 150L216 150L216 149L217 149L218 149L218 148L219 148L220 148M163,148L164 148L164 147L165 147L166 147L167 147L168 147L168 146L171 146L172 146L173 146L174 146L175 146L175 145L176.8 145.4L177 146L179 146L180 146L182 146L183 146L184.8 146.4L185 147L186 147L187 147L187.75 147.25L188 148L189 148L190 148L191 148Q191.5 148 191.75 148.25L192 149L193 149L193.75 149.25L194 150L195 150L196 150L196.75 150.25L197 151L198 151L198.75 151.25L199 152L200 152Q200.5 152 200.75 152.25L201 153L201.5 153.1L201.5 159.95L201.25 159.75L201 159L200.25 158.75Q200 158.5 200 158L199.25 157.75Q199 157.5 199 157L198.25 156.75L198 156L197 156L196.25 155.75Q196 155.5 196 155L195 155L194 155L193 155L190 155L189 155L187 155L186.75 155.75L186 156L185 156L184.75 156.75L184 157L183 157L182 157L181.75 157.75L181 158L180 158L179.75 158.75L179 159L178 159L177.75 159.75L177 160L176.75 160.75L176 161L175 161L174.75 161.75L174 162L173.75 162.75L173 163L172 163L171.75 163.75L171 164L170.75 164.75L170 165L169 165L168.75 165.75L168 166L167.75 166.75L167 167L166.1 167.2Q165.5 167.5 165 168L164.75 168.75L164 169L163.75 169.75L163 170L162 170L161.75 170.75L161 171L160 171L159 171L158 171L157.75 171.75L157 172L156 172L153 172L152 172L151.25 171.75Q151 171.5 151 171L150 171L149.25 170.75Q149 170.5 149 170L148.25 169.75L147 168L146.25 167.75Q146 167.5 146 167L146 166L145.5 165.9Q145 163.5 145 161L146 161L146 160L146 159L146 158L147 158L147 157L148 157L148 156L149 156L149 155L150 155L150 154L151 154L151 153L152 153L153 153L153 152L154 152L154 151L155 151L156 151L156 150L157 150L158 150L158 149L159 149L160 149L161 149L161 148L162 148L163 148" />
</g>
</svg>
