<?xml version="1.0" encoding="utf-8"?>
<svg version="1.1" id="Layer_1"
xmlns="http://www.w3.org/2000/svg"
xmlns:xlink="http://www.w3.org/1999/xlink"
xmlns:author="http://www.sothink.com"
width="13px" height="72px"
xml:space="preserve">
<g id="5" transform="matrix(1, 0, 0, 1, 0, 0)">
<path style="fill:#FFFFFF;fill-opacity:0.101961" d="M12,0.75L12 1.75L11 1.75L11 2.75L10 2.75L10 3.75L9 3.75L9 4.75L9 5.75L8 5.75L8 6.75L8 7.75L7 7.75L7 8.75L7 9.75L7 10.75L7 11.75L7 13.75L7 14.75L6 14.75Q6 17.75 6.5 20.65L7 20.75L7 21.75L7.5 22.15L7.5 25.25L7.75 25.25L7.75 27.5L8.25 27.5L8.25 28.75L8 28.75L8 29.75L8 30.75L7 30.75L7 31.75L7 32.75L7 33.75L7 34.75L7 35.75L7 36.75L6 36.75L6 37.75L6 39.75L6 40.75L6 41.75L5 41.75L5 42.75L5 45.75L5 46.75L5 48.75L5 49.75L5 50.75L4 50.75Q4 51.25 4.25 51.5L5 51.75L5 52.75L5 54.75L5 55.75L5 57.75L5 58.75Q5 59.25 5.25 59.5L6 59.75L6 60.75L6 62.75L6 63.75Q6 64.75 6.4 65.55Q6.5 65.75 7 65.75L7 66.75L7 67.75L7 68.75L7 69.75L7 70.75L6 70.75L2 70.75L2 71.75L1 71.75L1 70.75L1 69.75L1 67.75L1 66.75L0.8 65.85L0 64.75L0 63.75L0 60.75L0 59.75L0 47.75L0 46.75L0 42.75L0.8 41.65L1 40.75L1 39.75L1 38.75L1 37.75L1 36.75L1.75 36.5L2 35.75L2 34.75L2 33.75L2 32.75L2 31.75L1.75 31L1.5 30.85L1.5 27.25L2 27.25L2 23.75L2.75 23.5L3 22.75L3 21.75L3 20.75L3 19.75L3 17.75L3.75 17.5L4 16.75L4 15.75L4 13.75L4 12.75L5 12.75L5.5 12.75L5 11.75L5 10.75L5 9.75L6 9.75L6 8.75L6 7.75L6 6.75L6.75 6.5L7 5.75L7 4.75L7 3.75L7.75 3.5L8 2.75L8 1.75L8.75 1.5L9 0.75L9 0L13 0L13 0.75L12 0.75" />
</g>
</svg>
