<?xml version="1.0" encoding="utf-8"?>
<svg version="1.1" id="Layer_1"
xmlns="http://www.w3.org/2000/svg"
xmlns:xlink="http://www.w3.org/1999/xlink"
xmlns:author="http://www.sothink.com"
width="99px" height="86px"
xml:space="preserve">
<g id="4" transform="matrix(1, 0, 0, 1, -167.15, -202.5)">
<path style="fill:#FFFFFF;fill-opacity:0.101961" d="M203.45,203L204 203L204 202.6L210.5 203L211 204L211 206.75L211.75 207.75L212 209.75L216.25 218L216.5 218Q218.6 218.3 220 219.5Q229.3 221.6 238 222L238.5 221.25Q248.1 217.05 259.75 219Q256.4 219.65 253.5 221.5Q247.5 222.1 243.5 225.25L248.25 226L253.5 228.25Q261.85 232.2 265.75 239.25L257.25 233.5Q245.2 229.45 232.25 227.25L232 231.5Q229.8 236.25 230.5 240.5Q228 232.5 228.25 224Q221.2 221.4 214 222Q215.7 229.8 215.4 238.25L217.35 239.25Q224.65 243.35 232.55 246.35L235 245.75Q243.9 243.05 253.25 244.75Q254.05 245.25 254 246.5L252.75 247.75L250.75 248L250 248.5Q244.5 248.25 241.5 251L241.55 251.15Q243 252 243.75 253.5Q246.85 255.35 249.25 258.25L250 258.5Q252 260.3 251.75 261.5Q240.95 255.65 229.25 251.25Q226.95 250.5 225.25 250.75L224.75 254L224.25 254.75L224.25 258L221.75 263.5Q222.1 255.35 221 248.25L219.5 248Q219.2 247.35 218.25 247.25Q216.85 245.65 215 244.5L213 244.5Q212.45 253.85 212.25 262.75L218.25 265L218.75 265.75L219.75 266Q226.1 271.4 230 279L230.5 279.5Q231.3 281.65 230.25 282.75L224 280.5L212.75 272.75Q210.65 270 208.25 268.5L208 272L207.5 272.75Q207.65 274.2 207 274.75L206.75 276.75Q204.35 280.65 200.75 283.25Q199.75 285.2 198 286.5L197 286.75L196.25 287.75Q195.05 288.75 195 288L195 284.5Q199.65 275.05 205 266.75L205.75 265.5Q204.9 257.1 205.25 249L204 249.25Q203.3 250.3 202.25 250.25L200.75 251.75Q200.5 258.8 195.75 263.5Q195.1 257.75 196.25 251.75Q189.85 254.85 184.25 259.5L185.5 255.5Q185.9 255.7 186.3 255Q187.6 252.75 189.5 251.75L190.5 249.75Q190 248.1 189 246.5L188.25 246.25L186.25 243.5L186 242.5L185.25 241.75Q184.55 240.7 185.5 240.75Q192.05 243.3 197.5 248L198.25 247.5L201.25 247.25L201.75 246.5Q203.5 246.15 204.5 244.75Q205.8 244.55 206.75 243.5L206.75 227.25Q205.7 227.8 204.5 228L203 228.75Q201 229.6 199.5 231L201.5 233L201.5 235.75L200.75 236.5L200.5 237.5L197 241.75L197 237L194 232.5L192.25 232.75Q183.7 234.6 175.25 237.5L172 240.25Q169.7 241.65 167.25 242.25Q167.1 242 167.25 241.5Q168.2 238.7 169.5 235.75Q172.6 233.2 176 231L185 230.25L184.25 229.5L182.75 229Q178.75 224.15 172 223.75Q179 221.8 186 224.25L187.5 226.5L189.5 228.5L191.25 227.25L192.5 227.25L195.5 225.25Q196.3 225.3 197 224.75L206.75 224L206.75 217.5Q206.05 216.65 206 215.5L205 214.5L205 213.25L204.5 212.75Q204.25 208.15 203.5 203.5L203 203L203.45 203M203,203L202.75 202.75L203 202.5L203 203" />
<path style="fill:#03A14E;fill-opacity:0.984314" d="M203,202.5L204 202.6L204 203L203.45 203L203 203L203 202.5" />
</g>
</svg>
