<?xml version="1.0" encoding="UTF-8" standalone="no"?>
<svg xmlns:xlink="http://www.w3.org/1999/xlink" height="20.5px" width="19.8px" xmlns="http://www.w3.org/2000/svg">
  <g transform="matrix(1.0, 0.0, 0.0, 1.0, 9.9, 10.25)">
    <path d="M4.65 -9.95 L4.45 -9.95 4.35 -9.1 4.5 -7.8 4.85 -6.8 5.95 -5.0 8.1 -3.4 8.6 -2.85 9.25 -1.55 9.9 -1.05 9.1 0.6 8.75 1.7 8.6 2.85 8.6 5.0 8.75 5.35 9.4 6.0 9.9 6.15 4.65 9.75 4.35 10.1 4.35 10.25 3.5 9.9 2.7 9.9 1.05 9.6 0.55 9.4 0.4 9.25 -0.1 8.6 -0.25 7.95 -0.6 7.45 -2.05 6.0 -2.85 5.35 -4.0 5.0 -4.2 4.5 -4.65 4.2 -5.15 4.0 -5.8 4.2 -5.8 3.85 -7.3 3.35 -7.8 3.55 -9.25 1.9 -9.9 2.05 -8.1 0.4 -7.45 -0.55 -7.15 -1.55 -6.15 -2.55 -5.15 -4.35 -5.0 -5.7 -2.55 -6.35 -1.25 -6.8 2.7 -8.95 3.7 -9.3 3.5 -9.6 3.85 -9.95 4.45 -9.95 4.5 -10.25 4.65 -9.95" fill="#a7a99f" fill-rule="evenodd" stroke="none"/>
    <path d="M4.35 10.25 L1.9 9.9 0.75 9.6 0.25 9.25 -0.1 8.6 -0.9 7.45 -2.85 5.5 -1.25 6.45 -0.9 6.8 0.75 9.1 1.55 9.6 2.7 9.75 3.5 9.75 4.35 10.25 4.35 10.1 4.85 9.6 7.45 8.1 8.1 7.45 8.75 6.95 8.9 6.3 8.9 6.0 8.75 5.65 8.45 4.5 8.45 3.35 8.6 2.2 9.4 -0.25 9.4 -0.9 9.25 -1.55 8.45 -2.35 7.8 -3.4 5.95 -4.85 5.5 -5.35 4.5 -7.3 4.35 -8.8 4.35 -9.6 3.7 -9.3 3.7 -9.1 -0.6 -7.0 -3.35 -6.0 -4.2 -5.35 -4.85 -4.55 -7.3 -0.25 -9.25 1.7 -7.85 3.25 -8.25 3.05 -9.25 1.9 -9.3 1.8 -9.75 2.2 -9.9 2.2 -9.9 2.05 -9.25 1.4 -7.15 -1.55 -5.3 -4.85 -5.15 -5.7 -5.15 -5.85 -2.55 -6.65 4.0 -10.1 4.35 -10.1 4.35 -10.25 4.65 -10.25 4.65 -9.75 4.55 -9.7 5.0 -7.0 5.15 -6.35 5.5 -5.7 5.95 -5.0 6.8 -4.55 7.8 -3.7 9.1 -2.05 9.9 -1.2 9.9 -1.05 8.6 2.7 8.6 3.7 8.75 4.65 9.1 5.5 9.4 5.8 9.9 6.0 9.9 6.3 4.85 10.1 4.5 10.1 4.5 10.25 4.35 10.25 M-7.85 3.25 L-7.55 3.35 -7.15 3.35 -6.0 3.55 -4.35 4.0 -4.2 4.35 -3.5 5.0 -5.0 4.35 -5.8 4.2 -7.55 3.35 -7.75 3.35 -7.6 3.55 -7.6 3.7 -7.8 3.7 -7.8 3.55 -7.95 3.55 -7.8 3.35 -7.75 3.35 -7.85 3.25" fill="#010101" fill-rule="evenodd" stroke="none"/>
    <path d="M2.05 -1.7 L2.55 -2.05 2.8 -2.3 1.9 -0.1 1.9 0.6 2.35 3.35 2.55 3.55 3.05 3.7 3.7 3.7 3.7 4.0 3.85 4.2 4.0 4.65 6.3 5.65 7.45 5.8 7.95 5.8 8.1 5.5 8.1 5.0 8.25 5.0 9.25 6.0 4.0 7.8 1.05 6.8 -5.15 2.85 -8.6 1.9 -7.3 1.7 -6.95 1.7 -6.3 1.9 -5.3 1.55 -4.65 0.6 -3.7 -1.55 Q-3.4 -1.7 -3.2 -1.9 L-2.85 -2.05 -2.4 -1.9 0.4 -1.55 1.25 -1.55 2.05 -1.7" fill="#656964" fill-rule="evenodd" stroke="none"/>
    <path d="M1.9 4.35 L2.35 5.8 3.05 5.8 3.35 5.65 3.7 5.65 4.15 5.5 7.1 6.0 8.9 6.0 9.25 6.15 9.4 6.3 9.4 6.45 4.15 9.9 3.35 9.6 2.55 9.4 1.7 9.6 1.55 9.6 0.25 8.75 -0.6 7.6 -0.75 7.15 -1.9 6.0 -3.7 4.85 -5.0 4.2 -7.45 3.35 -8.6 1.9 -8.1 2.05 -7.15 2.2 -5.8 2.2 -5.3 2.05 -5.0 1.7 -3.5 0.75 -2.55 0.4 0.75 0.25 1.55 0.1 1.7 -0.1 1.7 0.25 1.55 1.25 1.9 4.35" fill="#555a55" fill-rule="evenodd" stroke="none"/>
    <path d="M3.2 -3.7 L3.35 -6.5 3.5 -6.5 3.35 -5.2 3.35 -2.7 3.2 -2.05 2.85 -1.55 2.35 -0.55 2.05 0.4 1.9 1.4 1.9 2.2 2.35 6.15 1.7 3.05 1.55 1.55 1.55 0.75 1.7 -0.1 2.7 -1.7 3.05 -2.55 3.2 -3.7" fill="#010101" fill-rule="evenodd" stroke="none"/>
    <path d="M2.35 -0.9 L2.35 -0.55 0.25 0.25 -2.7 0.25 -2.7 0.1 0.25 -0.1 1.25 -0.55 1.85 -0.75 1.7 -0.9 1.9 -1.05 2.35 -0.9" fill="#010101" fill-rule="evenodd" stroke="none"/>
    <path d="M3.35 5.8 L3.7 5.8 2.55 6.15 2.2 6.65 2.05 6.45 2.35 6.3 2.55 6.0 3.35 5.8 M9.25 6.0 L9.4 5.8 9.6 6.15 9.4 6.15 9.1 6.3 8.45 6.3 7.1 6.0 5.95 6.0 4.5 5.8 9.25 6.0" fill="#010101" fill-rule="evenodd" stroke="none"/>
    <path d="M4.55 -6.7 L5.0 -5.85 5.5 -5.2 6.95 -3.7 7.45 -3.55 7.8 -3.4 8.75 -2.35 9.25 -1.4 9.4 -0.9 9.1 -0.25 8.25 5.15 7.95 4.35 7.45 1.7 7.45 0.1 7.8 -0.9 8.1 -1.55 8.1 -1.9 7.95 -2.35 6.3 -4.2 5.65 -4.7 4.65 -6.15 4.55 -6.7 M3.85 -9.3 L4.15 -9.3 4.15 -8.8 4.45 -7.1 4.0 -8.3 3.85 -8.65 3.85 -8.8 3.7 -7.65 3.5 -7.3 3.2 -7.3 2.7 -7.5 0.25 -6.35 -2.7 -4.35 -3.05 -4.2 -3.2 -4.2 -3.5 -4.55 -3.85 -5.0 -3.85 -5.2 -0.25 -6.65 3.85 -9.3" fill="#656964" fill-rule="evenodd" stroke="none"/>
  </g>
</svg>
