<?xml version="1.0" encoding="UTF-8" standalone="no"?>
<svg xmlns:xlink="http://www.w3.org/1999/xlink" height="16.05px" width="16.7px" xmlns="http://www.w3.org/2000/svg">
  <g transform="matrix(1.0, 0.0, 0.0, 1.0, 8.35, 8.05)">
    <path d="M-5.1 -1.5 L-5.1 -1.85 -5.25 -2.0 -5.6 -2.0 -5.9 -2.2 -6.4 -2.5 -6.55 -2.85 -6.75 -3.5 -4.1 -4.15 -1.65 -5.1 -1.35 -5.45 -1.35 -6.75 -1.15 -6.9 -0.85 -7.1 -0.85 -7.4 -0.65 -7.75 -0.2 -7.9 0.1 -7.75 0.0 -6.9 0.15 -5.6 0.45 -4.65 0.95 -3.65 1.45 -3.15 3.75 -2.2 6.05 -1.5 6.55 -1.2 6.85 -0.7 7.2 -0.05 7.7 0.6 8.15 1.1 7.5 2.25 6.85 3.05 6.85 3.9 7.2 4.2 7.85 4.35 4.9 6.65 3.9 7.15 3.4 7.5 3.1 7.8 1.8 7.5 0.95 7.5 0.3 7.3 -0.2 7.0 -0.85 6.0 -1.0 5.5 -2.3 4.2 -2.5 4.2 -2.15 4.7 -2.0 5.2 -2.15 5.35 -2.3 5.35 -2.5 4.85 -2.95 4.55 -3.45 4.35 -4.1 4.55 -4.3 4.2 -5.75 3.7 -6.1 3.85 -6.9 3.05 -7.2 2.55 -7.7 2.25 -8.2 2.4 -7.2 1.75 -5.75 -0.2 -5.6 -0.7 -5.6 -1.2 -5.1 -1.5 M0.1 -7.75 L0.15 -8.05 0.15 -7.75 0.1 -7.75" fill="#a7a99f" fill-rule="evenodd" stroke="none"/>
    <path d="M-4.75 4.05 L-3.3 4.35 -2.95 4.35 -2.5 4.7 -2.3 4.7 -2.5 4.2 -2.5 4.05 -2.3 4.2 -2.15 4.7 -2.0 5.05 -2.0 5.35 -2.3 5.35 -4.1 4.55 -4.3 4.55 -4.6 4.2 -4.95 4.2 -5.75 3.9 -6.0 3.7 -5.4 3.7 -4.75 4.05 M-5.25 -4.0 L-2.8 -4.8 -2.15 -5.1 -1.65 -5.8 -1.5 -6.45 -1.5 -6.75 -1.35 -6.9 -1.0 -7.6 -0.35 -7.9 -0.2 -7.9 -0.05 -7.8 0.0 -8.05 0.15 -8.05 0.3 -7.75 0.3 -7.6 0.05 -7.6 0.15 -7.1 0.15 -6.1 0.3 -5.1 0.8 -4.15 1.45 -3.5 2.45 -2.85 5.05 -1.85 5.7 -1.7 6.2 -1.35 6.85 -0.7 7.35 0.1 8.35 0.95 8.35 1.1 7.85 1.75 7.35 2.75 7.2 3.25 7.2 3.7 7.85 4.35 8.0 4.35 7.85 4.55 5.7 6.35 3.6 7.65 3.25 7.8 3.1 8.0 0.0 7.3 -0.35 7.0 -1.65 4.85 -1.9 4.5 -1.0 5.35 -0.65 5.85 -0.35 6.5 0.0 6.85 0.45 7.15 0.95 7.3 2.1 7.5 3.1 7.8 3.1 7.65 6.7 4.85 7.0 4.35 7.0 4.2 6.7 3.9 6.7 3.25 6.85 2.75 7.35 2.1 7.5 1.6 7.5 0.6 6.55 -0.7 5.9 -1.2 4.4 -1.85 1.95 -2.65 0.8 -3.5 0.45 -4.15 0.15 -4.65 -0.2 -6.75 -0.1 -7.6 -0.2 -7.6 -0.5 -7.4 -1.0 -6.6 -1.65 -5.1 -2.0 -4.8 -2.5 -4.65 -3.45 -4.15 -6.25 -3.5 -6.4 -3.15 -6.4 -3.0 -6.1 -2.65 -4.95 -1.85 -4.95 -1.7 -6.25 0.6 -7.05 1.6 -7.6 2.1 -7.55 2.1 -6.75 2.9 -6.3 3.55 -7.2 2.9 -7.7 2.25 -7.7 2.15 -8.2 2.55 -8.35 2.55 -8.35 2.4 -6.4 0.3 -5.6 -1.2 -5.6 -1.85 -5.75 -2.0 -6.25 -2.35 -6.55 -2.5 -6.75 -3.0 -6.75 -3.65 -5.25 -4.0 M-6.3 3.55 L-6.0 3.7 -6.2 3.7 -6.1 3.9 -6.1 4.05 -6.25 4.05 -6.25 3.7 -6.2 3.7 -6.3 3.55" fill="#010101" fill-rule="evenodd" stroke="none"/>
    <path d="M-6.55 2.4 L-5.4 2.55 -4.3 2.55 -4.05 2.55 -3.45 1.9 -3.15 1.75 -3.3 2.1 -3.6 2.4 -4.05 2.55 -4.1 2.55 -2.15 2.55 0.0 2.25 0.15 1.75 0.3 1.75 0.45 1.6 0.8 2.25 1.45 4.05 1.8 4.2 2.1 4.05 2.25 4.05 2.6 3.9 2.95 3.9 5.4 4.2 7.2 4.2 7.35 4.35 7.35 4.55 3.1 7.65 2.25 7.3 0.8 7.3 0.3 7.15 -0.35 6.65 -1.0 5.7 -1.0 5.5 -1.35 5.2 -2.5 4.7 -4.95 4.05 -5.75 3.7 -7.05 2.25 -6.55 2.4" fill="#555a55" fill-rule="evenodd" stroke="none"/>
    <path d="M-1.15 -4.15 L-1.0 -4.3 -1.05 -4.15 -1.15 -4.15 M-1.0 -1.7 L-1.35 -2.2 -1.35 -2.85 -1.15 -3.5 -1.15 -2.65 -0.65 -1.7 1.15 -0.7 1.6 -0.2 1.6 0.1 0.15 2.4 0.0 3.25 0.15 4.05 0.15 4.2 0.3 4.2 1.15 3.9 1.3 3.9 1.45 4.05 1.45 4.35 1.15 4.05 0.8 4.2 0.3 4.35 0.0 4.35 -0.2 3.55 0.0 2.75 0.95 0.6 1.3 0.1 1.15 -0.35 0.45 -0.85 -1.0 -1.7" fill="#010101" fill-rule="evenodd" stroke="none"/>
    <path d="M-4.3 2.4 L-4.3 2.25 -2.8 2.25 -1.5 2.1 -0.5 1.75 0.15 1.45 0.15 1.25 0.65 1.25 0.8 1.45 0.65 1.6 -0.35 2.1 -1.35 2.4 -4.3 2.4" fill="#010101" fill-rule="evenodd" stroke="none"/>
    <path d="M3.25 4.05 L3.6 4.05 6.7 4.35 7.35 4.2 7.5 4.2 7.5 4.35 7.2 4.55 6.55 4.55 3.25 4.05" fill="#010101" fill-rule="evenodd" stroke="none"/>
    <path d="M-0.5 -6.45 L-0.35 -6.6 0.0 -5.6 1.45 -3.65 4.55 -1.85 5.7 -1.35 6.2 -1.05 7.0 -0.2 7.7 0.75 7.85 1.25 7.7 1.6 6.35 3.55 6.05 3.9 5.7 2.9 5.7 2.4 5.9 1.75 6.2 1.25 6.2 0.95 6.05 0.6 4.9 -0.2 1.8 -2.0 1.15 -2.5 0.65 -3.15 0.0 -4.8 -0.35 -6.1 -0.5 -6.45 -0.65 -6.25 -0.65 -6.6 -0.5 -6.45" fill="#656964" fill-rule="evenodd" stroke="none"/>
  </g>
</svg>
