<?xml version="1.0" encoding="UTF-8" standalone="no"?>
<svg xmlns:xlink="http://www.w3.org/1999/xlink" height="4.9px" width="6.9px" xmlns="http://www.w3.org/2000/svg">
  <g transform="matrix(1.0, 0.0, 0.0, 1.0, 3.45, 2.45)">
    <path d="M-2.6 -0.3 L-3.45 -0.3 -2.6 -1.6 -1.95 -2.3 -1.8 -2.3 -1.45 -2.45 -0.65 -2.45 -0.3 -2.3 0.0 -1.95 0.65 -1.6 0.35 -1.95 0.5 -1.95 0.65 -1.8 0.8 -1.8 1.3 -1.95 1.3 -1.8 1.95 -1.8 2.15 -1.95 2.45 -1.8 2.6 -1.6 2.6 -1.45 2.45 -1.15 2.6 -0.65 2.6 -0.15 2.8 0.2 3.1 0.5 3.3 1.0 3.1 1.0 2.6 1.15 1.15 0.85 0.5 1.15 0.5 1.65 0.65 1.8 0.5 2.0 0.5 2.3 0.15 2.3 0.15 2.15 -0.5 2.15 -0.8 2.0 -1.0 1.65 -1.15 1.5 -1.15 1.35 -1.45 1.15 -2.1 0.5 -2.45 0.5 -2.45 0.0 -2.6 -0.3" fill="#a7a99f" fill-rule="evenodd" stroke="none"/>
    <path d="M-1.15 1.5 L-0.8 1.8 -0.3 2.0 0.0 2.15 0.15 2.15 0.15 2.3 0.35 2.15 0.5 1.8 0.5 1.15 0.65 0.85 1.8 0.85 2.6 1.0 2.95 1.0 3.1 0.85 3.1 0.65 2.6 0.0 2.45 -0.15 2.45 -1.3 2.6 -1.6 2.6 -0.95 2.8 -0.3 3.45 1.0 3.3 1.0 2.8 1.15 2.15 1.0 1.0 1.0 0.8 1.15 0.65 1.5 0.5 2.15 0.5 2.3 0.35 2.45 0.15 2.45 0.0 2.45 0.1 2.4 -0.15 2.3 -1.15 1.8 -1.15 1.5 -1.8 0.85 -1.3 1.15 -1.15 1.5 M-2.8 -1.3 L-3.1 -0.65 -3.1 -0.45 -2.8 -0.45 -2.45 -0.15 -2.1 0.5 -1.8 0.85 -2.45 0.5 -2.45 0.35 -2.6 0.0 -2.8 -0.15 -3.1 -0.3 -3.45 -0.3 -2.8 -1.45 -2.3 -1.95 -2.1 -2.3 -2.1 -2.45 -0.65 -2.45 -0.15 -2.1 0.15 -1.8 0.5 -1.6 0.5 -1.8 0.65 -1.6 0.65 -1.45 -0.65 -2.3 -1.95 -2.3 -2.8 -1.3 M2.05 -1.8 L1.95 -1.8 0.5 -1.8 0.35 -1.95 1.65 -1.95 2.05 -1.8 2.15 -1.95 2.6 -1.6 2.05 -1.8" fill="#010101" fill-rule="evenodd" stroke="none"/>
    <path d="M-3.25 -0.45 L-1.95 -2.3 -1.65 -2.3 -1.15 -2.45 -0.8 -2.45 -0.5 -2.3 0.0 -1.8 1.95 -1.8 2.6 -1.45 2.45 -1.15 1.15 0.2 0.5 -0.15 0.15 -0.45 0.0 -0.45 -0.15 -0.65 -0.15 -0.95 -0.5 -1.3 -0.8 -0.95 -1.15 -0.95 -1.45 -0.8 -1.95 -0.65 -2.95 -0.45 -3.25 -0.45" fill="#555a55" fill-rule="evenodd" stroke="none"/>
    <path d="M0.0 0.65 L0.15 0.65 0.0 0.85 0.0 0.65 M-0.3 0.2 L-0.3 0.65 -0.5 0.65 -0.3 0.2 M-0.8 -0.95 L-1.0 -1.15 -0.65 -1.15 -0.8 -0.95" fill="#010101" fill-rule="evenodd" stroke="none"/>
    <path d="M-0.3 0.0 L-0.3 -0.15 0.35 -0.15 0.65 0.2 0.8 0.3 0.5 0.2 0.15 0.0 -0.3 0.0" fill="#010101" fill-rule="evenodd" stroke="none"/>
    <path d="M-1.0 -1.3 L-0.8 -1.3 -1.0 -1.15 -1.1 -1.05 -1.0 -1.3 M-3.25 -0.3 L-3.25 -0.45 -2.95 -0.45 -2.6 -0.65 -1.95 -0.75 -3.25 -0.3" fill="#010101" fill-rule="evenodd" stroke="none"/>
  </g>
</svg>
