<?xml version="1.0" encoding="UTF-8" standalone="no"?>
<svg xmlns:xlink="http://www.w3.org/1999/xlink" height="4.9px" width="5.7px" xmlns="http://www.w3.org/2000/svg">
  <g transform="matrix(1.0, 0.0, 0.0, 1.0, 2.85, 2.45)">
    <path d="M-2.35 -0.95 L-1.6 -1.7 -1.4 -1.6 -1.05 -1.95 -0.75 -2.1 -0.4 -2.1 -0.1 -1.95 0.25 -1.95 0.75 -2.1 2.05 -2.1 2.55 -2.3 2.7 -0.95 2.85 -0.5 2.85 -0.15 2.7 0.0 2.55 0.35 2.2 0.85 1.4 0.85 0.75 1.15 1.05 1.15 1.05 1.3 0.6 1.3 0.4 1.8 0.25 1.8 -0.1 2.15 -0.1 2.3 -0.25 2.15 -0.4 2.3 -0.75 2.45 -0.9 2.0 -1.4 1.8 -1.55 1.5 -1.9 1.3 -2.2 1.3 -2.7 1.15 -2.55 0.85 -2.35 0.85 -2.2 0.65 -2.2 0.35 -2.55 0.0 -2.7 0.0 -2.7 -0.5 -2.35 -0.95" fill="#a7a99f" fill-rule="evenodd" stroke="none"/>
    <path d="M-1.6 -1.7 L-2.2 -1.15 -2.05 -1.45 Q-1.8 -1.6 -1.6 -1.7 L-1.7 -1.8 -1.55 -1.8 -1.4 -1.8 -1.05 -1.95 -0.9 -2.1 1.7 -2.1 2.55 -2.45 2.55 -2.3 2.85 -1.3 2.85 -0.15 2.4 0.65 2.05 0.85 1.55 1.0 0.85 1.0 1.05 0.85 2.05 0.85 2.4 0.5 2.55 0.2 2.85 -0.15 2.7 -1.45 2.55 -1.95 2.4 -2.1 2.2 -2.1 1.55 -1.95 -0.25 -1.95 -1.25 -1.8 -1.4 -1.6 -1.6 -1.7 -1.55 -1.8 -1.6 -1.7 M-2.7 -0.65 L-2.2 -1.15 -2.55 -0.65 -2.7 -0.15 -2.2 0.35 -2.2 0.5 -2.35 0.35 -2.85 0.0 -2.7 -0.3 -2.7 -0.65 M0.9 1.15 L0.6 1.15 0.75 1.05 0.9 1.15 1.05 1.15 1.05 1.3 0.4 1.8 0.25 1.8 0.1 2.0 -0.1 2.3 -0.25 2.3 -0.75 2.45 -0.25 2.15 0.1 2.0 0.25 1.65 0.6 1.5 0.9 1.15 M-2.55 1.0 L-2.55 1.15 -2.2 1.3 -1.9 1.3 -1.55 1.5 -1.05 1.8 -0.75 2.15 -0.75 2.45 -0.9 2.15 -1.05 2.0 -1.55 1.65 -2.7 1.15 -2.85 1.15 -2.7 0.85 -2.35 0.85 -2.55 1.0" fill="#010101" fill-rule="evenodd" stroke="none"/>
    <path d="M-0.25 -0.95 L-0.25 -0.8 -0.4 -0.8 -0.25 -0.95 M-0.1 -0.95 L0.1 -0.8 0.6 -0.15 0.9 0.2 1.05 0.2 1.25 0.0 1.25 0.35 0.9 0.35 0.25 -0.3 -0.1 -0.95" fill="#010101" fill-rule="evenodd" stroke="none"/>
    <path d="M-2.2 0.65 L-2.05 0.5 -0.9 0.2 -0.55 0.0 -0.45 -0.05 -0.4 0.0 -1.05 0.35 -1.9 0.5 -2.2 0.65" fill="#010101" fill-rule="evenodd" stroke="none"/>
    <path d="M2.55 -2.1 L2.2 -1.8 2.4 -2.3 2.55 -2.3 2.55 -2.1" fill="#010101" fill-rule="evenodd" stroke="none"/>
    <path d="M1.7 -1.8 L2.4 -2.1 1.7 -1.15 1.4 -0.3 1.05 0.0 1.05 0.2 0.9 0.2 0.4 -0.3 0.6 -0.5 0.9 -0.3 0.9 -0.5 1.05 -0.65 1.4 -1.3 1.7 -1.8" fill="#656964" fill-rule="evenodd" stroke="none"/>
  </g>
</svg>
