<?xml version="1.0" encoding="UTF-8" standalone="no"?>
<svg xmlns:xlink="http://www.w3.org/1999/xlink" height="3.1px" width="4.6px" xmlns="http://www.w3.org/2000/svg">
  <g transform="matrix(1.0, 0.0, 0.0, 1.0, 2.3, 1.55)">
    <path d="M1.5 -0.6 L1.8 -0.25 2.15 -0.25 1.8 0.7 1.5 1.2 1.65 1.2 1.15 1.35 0.85 1.55 -0.15 1.05 -0.15 1.2 0.0 1.2 -0.15 1.35 -0.3 1.2 -0.65 1.35 -1.0 1.35 -1.15 1.55 -1.15 1.35 -1.65 1.35 -1.45 1.05 -1.8 0.7 -1.65 0.55 -1.8 0.4 -2.1 0.25 -2.3 -0.1 -2.1 -0.25 -1.8 -0.25 -1.8 -0.45 -1.65 -0.6 -1.8 -0.75 -1.8 -0.9 -1.65 -1.1 -1.3 -1.25 -0.5 -1.4 0.15 -1.4 0.5 -1.1 0.5 -0.9 0.65 -0.9 1.0 -0.75 1.5 -0.6" fill="#a7a99f" fill-rule="evenodd" stroke="none"/>
    <path d="M-0.5 -1.4 L-0.65 -1.55 -0.5 -1.55 -0.5 -1.4 0.15 -1.4 0.5 -1.1 2.15 -0.25 2.3 -0.25 1.65 1.2 1.0 1.35 1.3 1.2 1.5 1.2 1.95 0.05 2.15 -0.1 1.95 -0.25 1.8 -0.25 0.15 -1.25 -0.3 -1.25 -0.5 -1.4 M-1.95 -0.9 L-1.65 -1.1 -1.8 -0.9 -1.8 -0.75 -1.65 -0.6 -1.65 -0.45 -1.95 -0.9 M-2.1 -0.1 L-2.1 0.15 -2.3 -0.1 -2.1 -0.25 -1.8 -0.25 -2.1 -0.1 M-1.65 -0.45 L-1.65 -0.25 -1.8 -0.25 -1.65 -0.45 M-1.3 1.35 L-0.65 1.35 -1.15 1.55 -1.3 1.35 M-0.15 1.2 L0.0 1.35 -0.65 1.35 -0.3 1.2 -0.15 1.2 M1.0 1.35 L0.85 1.55 0.5 1.35 0.0 1.2 0.35 1.2 0.65 1.35 1.0 1.35 M-1.65 0.9 L-1.8 0.55 -2.0 0.25 -1.8 0.25 -1.65 0.4 -1.45 0.9 -1.45 1.35 -1.65 1.35 -1.65 0.9" fill="#010101" fill-rule="evenodd" stroke="none"/>
    <path d="M0.65 0.55 L0.5 0.7 0.35 0.7 0.5 0.55 0.65 0.55 M0.0 0.05 L0.0 -0.45 0.15 -0.45 0.15 0.4 0.35 0.7 0.15 0.7 0.15 0.55 0.0 0.05" fill="#010101" fill-rule="evenodd" stroke="none"/>
    <path d="M-1.0 -0.1 L-0.5 -0.1 -0.3 0.05 -0.5 0.05 -0.5 0.0 -0.65 0.05 -1.0 -0.1" fill="#010101" fill-rule="evenodd" stroke="none"/>
    <path d="M1.15 0.25 L0.65 0.7 0.65 0.55 0.85 0.4 1.15 0.25 M1.95 -0.1 L1.65 0.05 1.95 -0.25 2.15 -0.25 1.95 -0.1" fill="#010101" fill-rule="evenodd" stroke="none"/>
    <path d="M1.8 -0.25 L1.95 -0.1 0.85 0.4 0.65 0.55 0.65 0.4 0.35 0.7 0.15 0.55 0.15 -0.25 0.35 -0.45 0.35 -0.6 0.15 -0.75 0.65 -0.45 0.85 -0.25 1.8 -0.25" fill="#656964" fill-rule="evenodd" stroke="none"/>
    <path d="M-0.5 0.05 L-0.8 0.4 -0.8 0.55 -1.0 0.55 -1.3 0.7 -1.45 0.7 -1.45 0.25 -1.65 0.25 -1.8 0.05 -2.3 0.05 -1.8 -0.25 -1.45 -0.1 -0.8 0.05 -0.5 0.05" fill="#656964" fill-rule="evenodd" stroke="none"/>
  </g>
</svg>
