<?xml version="1.0" encoding="UTF-8" standalone="no"?>
<svg xmlns:xlink="http://www.w3.org/1999/xlink" height="91.9px" width="245.7px" xmlns="http://www.w3.org/2000/svg">
  <g transform="matrix(1.0, 0.0, 0.0, 1.0, 123.8, 45.95)">
    <path d="M-111.85 35.7 Q-113.9 37.75 -116.8 37.75 -119.7 37.75 -121.75 35.7 -123.8 33.65 -123.8 30.75 -123.8 27.85 -121.75 25.8 -119.7 23.75 -116.8 23.75 -113.9 23.75 -111.85 25.8 -109.8 27.85 -109.8 30.75 -109.8 33.65 -111.85 35.7" fill="url(#gradient0)" fill-rule="evenodd" stroke="none"/>
    <path d="M-68.3 -5.75 Q-66.25 -7.8 -63.35 -7.8 -60.45 -7.8 -58.4 -5.75 -56.35 -3.7 -56.35 -0.8 -56.35 2.1 -58.4 4.15 -60.45 6.2 -63.35 6.2 -66.25 6.2 -68.3 4.15 -70.35 2.1 -70.35 -0.8 -70.35 -3.7 -68.3 -5.75" fill="url(#gradient1)" fill-rule="evenodd" stroke="none"/>
    <path d="M-24.2 -2.3 Q-21.3 -2.3 -19.25 -0.25 -17.2 1.8 -17.2 4.7 -17.2 7.6 -19.25 9.65 -21.3 11.7 -24.2 11.7 -27.1 11.7 -29.15 9.65 -31.2 7.6 -31.2 4.7 -31.2 1.8 -29.15 -0.25 -27.1 -2.3 -24.2 -2.3" fill="url(#gradient2)" fill-rule="evenodd" stroke="none"/>
    <path d="M21.0 -2.3 Q23.9 -2.3 25.95 -0.25 28.0 1.8 28.0 4.7 28.0 7.6 25.95 9.65 23.9 11.7 21.0 11.7 18.1 11.7 16.05 9.65 14.0 7.6 14.0 4.7 14.0 1.8 16.05 -0.25 18.1 -2.3 21.0 -2.3" fill="url(#gradient3)" fill-rule="evenodd" stroke="none"/>
    <path d="M117.1 14.95 Q117.1 17.85 115.05 19.9 113.0 21.95 110.1 21.95 107.2 21.95 105.15 19.9 103.1 17.85 103.1 14.95 103.1 12.05 105.15 10.0 107.2 7.95 110.1 7.95 113.0 7.95 115.05 10.0 117.1 12.05 117.1 14.95" fill="url(#gradient4)" fill-rule="evenodd" stroke="none"/>
    <path d="M109.65 -34.6 Q109.65 -31.7 107.6 -29.65 105.55 -27.6 102.65 -27.6 99.75 -27.6 97.7 -29.65 95.65 -31.7 95.65 -34.6 95.65 -37.5 97.7 -39.55 99.75 -41.6 102.65 -41.6 105.55 -41.6 107.6 -39.55 109.65 -37.5 109.65 -34.6" fill="url(#gradient5)" fill-rule="evenodd" stroke="none"/>
    <path d="M48.65 32.1 Q50.7 34.15 50.7 37.05 50.7 39.95 48.65 42.0 46.6 44.05 43.7 44.05 40.8 44.05 38.75 42.0 36.7 39.95 36.7 37.05 36.7 34.15 38.75 32.1 40.8 30.05 43.7 30.05 46.6 30.05 48.65 32.1" fill="url(#gradient6)" fill-rule="evenodd" stroke="none"/>
    <path d="M-116.45 31.05 L-120.55 39.05 -117.3 30.55 -121.9 28.75 -117.15 29.55 -116.8 16.95 -116.15 29.1 -114.5 28.25 -115.65 29.9 -110.45 30.7 -115.8 30.55 -109.3 42.5 -116.45 31.05" fill="#ffffff" fill-rule="evenodd" stroke="none"/>
    <path d="M-27.25 2.9 L-12.7 -10.2 -26.3 3.2 -21.7 3.85 -26.3 4.2 -19.75 12.05 -26.95 4.5 -31.2 13.7 -27.75 4.5 -30.7 5.5 -28.1 3.55 -30.35 -0.7 -27.25 2.9" fill="#ffffff" fill-rule="evenodd" stroke="none"/>
    <path d="M-70.35 -1.55 L-65.75 -0.9 -64.45 -15.15 -64.6 -1.2 -52.8 -11.2 -64.1 -0.55 -62.0 -0.25 -64.25 0.25 -61.15 7.95 -64.9 0.75 -66.4 2.9 -65.9 0.25 -70.35 -1.55" fill="#ffffff" fill-rule="evenodd" stroke="none"/>
    <path d="M108.8 14.2 L100.45 6.3 109.15 13.05 112.1 4.35 109.95 13.05 111.6 11.7 110.45 13.7 121.9 17.15 110.45 14.5 111.1 16.95 109.45 14.85 103.4 20.4 108.8 14.2" fill="#ffffff" fill-rule="evenodd" stroke="none"/>
    <path d="M21.2 5.15 L14.15 11.7 20.4 4.5 14.0 0.25 20.55 3.55 18.9 -6.3 21.55 3.35 22.85 1.75 22.05 3.85 32.65 4.85 22.2 4.7 23.2 6.95 21.2 5.15" fill="#ffffff" fill-rule="evenodd" stroke="none"/>
    <path d="M101.95 -33.2 L92.6 -28.25 101.45 -34.15 91.15 -45.95 102.25 -35.0 108.65 -43.5 103.25 -34.65 109.65 -35.0 103.4 -33.65 104.9 -32.2 102.75 -33.35 100.8 -25.15 101.95 -33.2" fill="#ffffff" fill-rule="evenodd" stroke="none"/>
    <path d="M42.5 36.95 L34.95 27.75 43.3 36.1 48.25 30.25 44.3 36.45 50.7 36.1 44.3 37.25 45.75 38.9 43.8 37.75 41.85 45.95 43.0 37.75 40.55 38.75 42.5 36.95" fill="#ffffff" fill-rule="evenodd" stroke="none"/>
    <path d="M-118.75 29.4 L-119.25 30.05 -119.1 29.1 -119.6 28.75 -119.1 28.75 -118.95 27.45 -118.6 28.6 -117.95 28.25 -118.45 28.9 -116.3 29.25 -118.45 29.1 -118.1 30.05 -118.75 29.4" fill="#ffffff" fill-rule="evenodd" stroke="none"/>
    <path d="M104.4 -35.15 L103.1 -35.3 104.4 -35.45 104.05 -36.3 104.55 -35.8 105.05 -37.95 104.9 -35.65 105.85 -35.95 105.05 -35.3 105.7 -34.8 104.9 -35.0 104.55 -34.65 104.4 -35.15" fill="#ffffff" fill-rule="evenodd" stroke="none"/>
  </g>
  <defs>
    <radialGradient cx="0" cy="0" gradientTransform="matrix(0.0092, 0.0, 0.0, 0.0092, -116.8, 30.75)" gradientUnits="userSpaceOnUse" id="gradient0" r="819.2" spreadMethod="pad">
      <stop offset="0.3803921568627451" stop-color="#ffffff" stop-opacity="0.48235294"/>
      <stop offset="1.0" stop-color="#ffffff" stop-opacity="0.0"/>
    </radialGradient>
    <radialGradient cx="0" cy="0" gradientTransform="matrix(0.0092, 0.0, 0.0, 0.0092, -63.35, -0.8)" gradientUnits="userSpaceOnUse" id="gradient1" r="819.2" spreadMethod="pad">
      <stop offset="0.3803921568627451" stop-color="#ffffff" stop-opacity="0.48235294"/>
      <stop offset="1.0" stop-color="#ffffff" stop-opacity="0.0"/>
    </radialGradient>
    <radialGradient cx="0" cy="0" gradientTransform="matrix(0.0092, 0.0, 0.0, 0.0092, -24.2, 4.7)" gradientUnits="userSpaceOnUse" id="gradient2" r="819.2" spreadMethod="pad">
      <stop offset="0.3803921568627451" stop-color="#ffffff" stop-opacity="0.48235294"/>
      <stop offset="1.0" stop-color="#ffffff" stop-opacity="0.0"/>
    </radialGradient>
    <radialGradient cx="0" cy="0" gradientTransform="matrix(0.0092, 0.0, 0.0, 0.0092, 21.0, 4.7)" gradientUnits="userSpaceOnUse" id="gradient3" r="819.2" spreadMethod="pad">
      <stop offset="0.3803921568627451" stop-color="#ffffff" stop-opacity="0.48235294"/>
      <stop offset="1.0" stop-color="#ffffff" stop-opacity="0.0"/>
    </radialGradient>
    <radialGradient cx="0" cy="0" gradientTransform="matrix(0.0092, 0.0, 0.0, 0.0092, 110.1, 14.95)" gradientUnits="userSpaceOnUse" id="gradient4" r="819.2" spreadMethod="pad">
      <stop offset="0.3803921568627451" stop-color="#ffffff" stop-opacity="0.48235294"/>
      <stop offset="1.0" stop-color="#ffffff" stop-opacity="0.0"/>
    </radialGradient>
    <radialGradient cx="0" cy="0" gradientTransform="matrix(0.0092, 0.0, 0.0, 0.0092, 102.65, -34.6)" gradientUnits="userSpaceOnUse" id="gradient5" r="819.2" spreadMethod="pad">
      <stop offset="0.3803921568627451" stop-color="#ffffff" stop-opacity="0.48235294"/>
      <stop offset="1.0" stop-color="#ffffff" stop-opacity="0.0"/>
    </radialGradient>
    <radialGradient cx="0" cy="0" gradientTransform="matrix(0.0092, 0.0, 0.0, 0.0092, 43.7, 37.05)" gradientUnits="userSpaceOnUse" id="gradient6" r="819.2" spreadMethod="pad">
      <stop offset="0.3803921568627451" stop-color="#ffffff" stop-opacity="0.48235294"/>
      <stop offset="1.0" stop-color="#ffffff" stop-opacity="0.0"/>
    </radialGradient>
  </defs>
</svg>
