<?xml version="1.0" encoding="UTF-8" standalone="no"?>
<svg xmlns:xlink="http://www.w3.org/1999/xlink" height="38.95px" width="24.55px" xmlns="http://www.w3.org/2000/svg">
  <g transform="matrix(1.0, 0.0, 0.0, 1.0, 12.35, 19.45)">
    <path d="M12.2 3.8 L0.55 2.95 6.3 16.55 -0.45 5.75 -12.2 19.5 -3.85 3.3 -9.6 0.0 -2.9 -1.1 -1.25 -19.45 -0.1 0.7 2.5 -0.8 0.9 1.8 12.2 3.8" fill="#ffffff" fill-rule="evenodd" stroke="none"/>
    <path d="M-0.05 -10.25 Q5.0 -10.25 8.6 -6.65 12.2 -3.05 12.2 2.05 12.2 7.1 8.6 10.7 5.0 14.3 -0.05 14.3 -5.15 14.3 -8.75 10.7 -12.35 7.1 -12.35 2.05 -12.35 -3.05 -8.75 -6.65 -5.15 -10.25 -0.05 -10.25" fill="url(#gradient0)" fill-rule="evenodd" stroke="none"/>
  </g>
  <defs>
    <radialGradient cx="0" cy="0" gradientTransform="matrix(0.0162, 0.0, 0.0, 0.0162, -0.05, 2.0)" gradientUnits="userSpaceOnUse" id="gradient0" r="819.2" spreadMethod="pad">
      <stop offset="0.09411764705882353" stop-color="#ffffff" stop-opacity="0.48235294"/>
      <stop offset="1.0" stop-color="#ffffff" stop-opacity="0.0"/>
    </radialGradient>
  </defs>
</svg>
