<?xml version="1.0" encoding="UTF-8" standalone="no"?>
<svg xmlns:xlink="http://www.w3.org/1999/xlink" height="97.4px" width="775.45px" xmlns="http://www.w3.org/2000/svg">
  <g transform="matrix(1.0, 0.0, 0.0, 1.0, 387.7, 48.7)">
    <path d="M-105.95 -19.45 L-107.65 -18.6 -109.2 -18.6 -109.55 -19.0 -110.1 -18.4 -110.45 -18.2 -110.8 -18.2 -111.45 -18.6 -111.8 -18.4 -111.9 -18.35 -111.65 -18.2 -111.3 -17.8 -111.3 -16.55 -111.65 -15.75 -112.35 -14.7 -114.25 -12.7 -116.65 -11.85 -118.05 -11.65 -120.3 -12.05 -120.8 -12.45 -121.0 -12.7 -121.15 -13.1 -120.8 -14.3 -120.3 -14.95 -120.8 -14.7 -121.35 -14.3 -122.55 -14.3 -123.05 -14.5 -123.25 -14.95 -123.25 -15.55 -122.9 -16.15 -123.4 -15.75 -123.75 -15.75 -124.1 -15.95 -124.65 -16.35 -126.0 -16.15 -126.0 -15.95 -126.2 -15.55 -127.9 -14.3 -131.7 -12.7 -132.95 -12.45 -135.85 -12.9 -137.25 -13.3 -138.3 -13.9 -138.8 -14.5 -138.8 -14.95 -138.65 -15.35 -138.1 -15.95 -137.45 -16.35 -138.1 -16.15 -138.8 -16.35 -139.15 -17.0 -139.35 -17.6 -139.35 -18.2 -139.15 -18.8 -137.6 -19.65 -138.65 -19.45 -139.5 -19.85 -140.05 -20.45 -140.35 -21.05 -140.35 -21.9 -140.2 -22.5 -139.5 -22.9 -138.65 -23.1 -139.85 -23.1 -140.05 -23.3 -140.05 -23.95 -138.3 -26.6 -137.6 -27.4 -136.2 -28.45 -135.0 -28.85 -133.8 -29.05 -131.7 -29.05 -130.85 -28.45 -130.5 -28.05 -130.35 -27.6 -130.35 -27.0 -130.15 -27.6 -129.45 -28.85 -126.9 -30.85 -123.6 -32.1 -120.8 -32.5 -119.8 -32.5 -116.15 -31.25 -115.1 -30.45 -114.75 -31.05 -114.05 -31.25 -113.4 -31.05 -112.5 -30.65 -112.0 -30.25 -111.65 -29.45 -111.3 -27.6 -111.3 -26.6 -111.8 -24.35 -111.3 -23.75 -111.3 -24.35 -111.15 -24.75 -110.95 -24.95 -110.6 -25.15 -109.9 -24.75 -109.25 -24.0 -107.85 -24.35 -106.45 -23.55 -105.95 -22.9 -105.6 -22.1 -105.4 -21.3 -105.4 -20.45 -105.75 -19.85 -105.95 -19.45" fill="#507039" fill-rule="evenodd" stroke="none"/>
    <path d="M-111.3 -23.75 L-111.3 -24.35 -111.15 -24.75 -110.95 -24.95 -110.6 -25.15 -109.9 -24.75 -109.25 -24.0 -107.85 -24.35 -106.45 -23.55 -105.95 -22.9 -105.6 -22.1 -105.4 -21.3 -105.4 -20.45 -105.75 -19.85 -105.95 -19.45 -107.65 -18.6 -109.2 -18.6 -109.55 -19.0 -110.1 -18.4 -110.45 -18.2 -110.8 -18.2 -111.45 -18.6 -111.8 -18.4 -111.9 -18.35 -111.65 -18.2 -111.3 -17.8 -111.3 -16.55 -111.65 -15.75 -112.35 -14.7 -114.25 -12.7 -116.65 -11.85 -118.05 -11.65 -120.3 -12.05 -120.8 -12.45 -121.0 -12.7 -121.15 -13.1 -120.8 -14.3 -120.3 -14.95 -120.8 -14.7 -121.35 -14.3 -122.55 -14.3 -123.05 -14.5 -123.25 -14.95 -123.25 -15.55 -122.9 -16.15 -123.4 -15.75 -123.75 -15.75 -124.1 -15.95 -124.65 -16.35 -126.0 -16.15 -126.0 -15.95 -126.2 -15.55 -127.9 -14.3 -131.7 -12.7 -132.95 -12.45 -135.85 -12.9 -137.25 -13.3 -138.3 -13.9 -138.8 -14.5 -138.8 -14.95 -138.65 -15.35 -138.1 -15.95 -137.45 -16.35 -138.1 -16.15 -138.8 -16.35 -139.15 -17.0 -139.35 -17.6 -139.35 -18.2 -139.15 -18.8 -137.6 -19.65 -138.65 -19.45 -139.5 -19.85 -140.05 -20.45 -140.35 -21.05 -140.35 -21.9 -140.2 -22.5 -139.5 -22.9 -138.65 -23.1 -139.85 -23.1 -140.05 -23.3 -140.05 -23.95 -138.3 -26.6 -137.6 -27.4 -136.2 -28.45 -135.0 -28.85 -133.8 -29.05 -131.7 -29.05 -130.85 -28.45 -130.5 -28.05 -130.35 -27.6 -130.35 -27.0 -130.15 -27.6 -129.45 -28.85 -126.9 -30.85 -123.6 -32.1 -120.8 -32.5 -119.8 -32.5 -116.15 -31.25 -115.1 -30.45 -114.75 -31.05 -114.05 -31.25 -113.4 -31.05 -112.5 -30.65 -112.0 -30.25 -111.65 -29.45 -111.3 -27.6 -111.3 -26.6 -111.8 -24.35 -111.65 -24.15 M-115.1 -30.45 L-114.75 -30.05 -114.4 -29.25 -114.6 -28.85 -114.75 -28.25 -115.1 -27.85 -115.45 -28.45 -115.65 -29.25 -115.45 -29.85 -115.1 -30.45 M-130.35 -27.0 L-130.35 -26.4 M-126.0 -16.15 L-126.2 -16.15 -126.2 -16.75 -126.0 -16.55 -126.0 -16.15 M-109.25 -24.0 L-109.2 -23.95 -109.2 -23.75 -109.4 -23.95 -109.25 -24.0 M-111.9 -18.35 L-112.15 -18.2 -112.5 -18.6 -112.0 -18.4 -111.9 -18.35 M-109.55 -19.0 L-109.75 -19.0 -109.75 -19.45 -109.4 -19.85 -109.55 -19.0" fill="none" stroke="#010101" stroke-linecap="round" stroke-linejoin="round" stroke-width="0.5"/>
    <path d="M-103.7 -30.85 L-102.65 -30.85 -99.0 -29.65 -98.15 -28.85 -97.65 -29.45 -96.95 -29.65 -95.4 -29.05 -94.85 -28.65 -94.5 -27.85 -94.15 -26.0 -94.15 -24.95 -94.5 -23.3 -94.85 -22.7 -94.5 -22.5 -94.15 -22.1 -94.15 -22.7 -94.0 -23.1 -93.8 -23.3 -93.5 -23.55 -92.8 -23.1 -92.45 -22.7 -92.25 -22.3 -90.7 -22.7 -89.35 -21.9 -88.8 -21.3 -88.45 -20.45 -88.3 -19.65 -88.65 -18.2 -89.0 -17.8 -90.55 -17.0 -92.1 -17.0 -92.5 -17.3 -92.95 -16.75 -93.3 -16.55 -93.65 -16.55 -94.35 -17.0 -94.7 -16.75 -94.75 -16.7 -94.5 -16.55 -94.15 -15.75 -94.15 -14.95 -95.2 -13.1 -95.9 -12.25 -97.3 -11.05 -99.55 -10.2 -100.9 -10.0 -103.35 -10.4 -103.85 -11.05 -104.05 -11.45 -104.05 -12.05 -103.35 -13.3 -104.4 -12.7 -105.4 -12.7 -105.95 -12.9 -106.1 -13.3 -106.1 -13.9 -105.75 -14.5 -106.3 -14.1 -106.65 -14.1 -107.0 -14.3 -107.5 -14.7 -108.9 -14.5 -109.05 -14.3 -109.2 -13.9 -110.8 -12.7 -114.75 -11.05 -115.8 -10.85 -120.15 -11.65 -121.35 -12.25 -121.85 -12.9 -121.85 -13.3 -121.5 -13.7 -121.15 -14.3 -120.3 -14.7 -121.15 -14.5 -121.7 -14.7 -122.4 -15.95 -122.05 -17.2 -121.5 -17.6 -120.65 -18.0 -121.7 -17.8 -122.4 -18.2 -122.9 -18.8 -123.25 -19.45 -123.25 -20.25 -123.05 -20.85 -122.55 -21.3 -121.7 -21.5 -122.7 -21.5 -122.9 -21.7 -122.9 -22.3 -122.55 -23.1 -120.65 -25.8 Q-119.85 -26.25 -119.1 -26.8 L-118.05 -27.2 -116.85 -27.4 -114.6 -27.4 -113.7 -26.8 -113.4 -26.0 -113.2 -25.35 -112.85 -26.6 -111.3 -28.25 -109.75 -29.25 -106.45 -30.45 -103.7 -30.85" fill="#3c6435" fill-rule="evenodd" stroke="none"/>
    <path d="M-94.15 -22.1 L-94.15 -22.7 -94.0 -23.1 -93.8 -23.3 -93.5 -23.55 -92.8 -23.1 -92.45 -22.7 -92.25 -22.3 -90.7 -22.7 -89.35 -21.9 -88.8 -21.3 -88.45 -20.45 -88.3 -19.65 -88.65 -18.2 -89.0 -17.8 -90.55 -17.0 -92.1 -17.0 -92.5 -17.3 -92.95 -16.75 -93.3 -16.55 -93.65 -16.55 -94.35 -17.0 -94.7 -16.75 -94.75 -16.7 -94.5 -16.55 -94.15 -15.75 -94.15 -14.95 -95.2 -13.1 -95.9 -12.25 -97.3 -11.05 -99.55 -10.2 -100.9 -10.0 -103.35 -10.4 -103.85 -11.05 -104.05 -11.45 -104.05 -12.05 -103.35 -13.3 -104.4 -12.7 -105.4 -12.7 -105.95 -12.9 -106.1 -13.3 -106.1 -13.9 -105.75 -14.5 -106.3 -14.1 -106.65 -14.1 -107.0 -14.3 -107.5 -14.7 -108.9 -14.5 -109.05 -14.3 -109.2 -13.9 -110.8 -12.7 -114.75 -11.05 -115.8 -10.85 -120.15 -11.65 -121.35 -12.25 -121.85 -12.9 -121.85 -13.3 -121.5 -13.7 -121.15 -14.3 -120.3 -14.7 -121.15 -14.5 -121.7 -14.7 -122.4 -15.95 -122.05 -17.2 -121.5 -17.6 -120.65 -18.0 -121.7 -17.8 -122.4 -18.2 -122.9 -18.8 -123.25 -19.45 -123.25 -20.25 -123.05 -20.85 -122.55 -21.3 -121.7 -21.5 -122.7 -21.5 -122.9 -21.7 -122.9 -22.3 -122.55 -23.1 -120.65 -25.8 Q-119.85 -26.25 -119.1 -26.8 L-118.05 -27.2 -116.85 -27.4 -114.6 -27.4 -113.7 -26.8 -113.4 -26.0 -113.2 -25.35 -112.85 -26.6 -111.3 -28.25 -109.75 -29.25 -106.45 -30.45 -103.7 -30.85 -102.65 -30.85 -99.0 -29.65 -98.15 -28.85 -97.65 -29.45 -96.95 -29.65 -95.4 -29.05 -94.85 -28.65 -94.5 -27.85 -94.15 -26.0 -94.15 -24.95 -94.5 -23.3 -94.85 -22.7 -94.7 -22.65 -94.5 -22.5 M-98.15 -28.85 L-97.45 -28.05 -97.45 -27.2 -97.65 -26.6 -98.15 -26.2 -98.5 -27.6 -98.15 -28.85 M-94.75 -16.7 L-95.05 -16.55 -95.4 -17.0 -94.85 -16.75 -94.75 -16.7 M-92.25 -22.3 L-92.25 -22.1 M-92.5 -17.3 L-92.6 -17.4 -92.6 -17.8 -92.25 -18.2 -92.45 -17.4 -92.5 -17.3 M-113.2 -25.35 L-113.2 -24.75 M-108.9 -14.5 L-109.05 -14.5 -109.2 -15.15 -108.9 -14.95 -108.9 -14.5" fill="none" stroke="#010101" stroke-linecap="round" stroke-linejoin="round" stroke-width="0.5"/>
    <path d="M-79.0 -21.9 L-79.5 -20.25 -80.0 -19.25 -81.75 -17.6 -82.6 -17.2 -83.65 -17.0 -83.95 -17.2 -84.5 -17.4 -85.0 -17.8 -84.65 -17.2 -84.5 -16.55 -84.5 -15.95 -84.65 -14.3 -85.15 -12.7 -85.85 -11.25 -87.75 -8.6 -89.5 -7.2 -90.7 -6.8 -91.9 -6.15 -93.15 -5.95 -94.35 -5.95 -94.5 -5.15 -94.85 -4.75 -95.4 -4.3 -96.25 -4.1 -97.8 -4.5 -99.35 -5.75 -100.4 -7.4 -100.9 -8.0 -101.1 -8.85 -101.8 -8.85 -101.45 -8.4 -101.25 -8.0 -101.45 -7.6 -101.8 -7.2 -102.8 -7.2 -103.35 -7.6 -103.7 -6.8 -104.2 -6.35 -104.9 -6.15 -106.65 -6.15 -107.3 -6.55 -108.0 -7.2 -108.55 -7.8 -108.7 -8.4 -108.7 -8.85 -108.55 -9.8 -108.0 -10.65 -107.5 -11.05 -106.8 -11.45 -106.3 -11.45 -106.3 -12.25 -105.95 -12.7 Q-105.75 -12.75 -105.6 -12.9 L-105.05 -12.9 -104.9 -13.3 -104.9 -13.4 -105.25 -13.3 -105.95 -13.7 -106.45 -14.3 -106.8 -15.35 -107.0 -16.35 -107.0 -17.4 -106.65 -19.25 -106.1 -20.25 -105.4 -21.3 -104.4 -22.3 -103.35 -22.9 -102.3 -23.3 -101.45 -23.3 -100.75 -22.5 -100.4 -21.05 -100.4 -21.7 -100.05 -22.3 -99.7 -22.7 -98.65 -23.1 -98.3 -22.9 -98.0 -22.5 -97.8 -21.7 -97.65 -22.3 -96.95 -22.7 -96.25 -22.7 -95.4 -23.55 -95.4 -23.95 -95.55 -24.15 -95.4 -25.15 -95.05 -26.2 -94.0 -28.45 -93.15 -29.85 -91.25 -31.45 -88.45 -32.7 -87.25 -32.9 -86.75 -32.7 -86.4 -32.7 -86.05 -32.3 -86.05 -31.25 -86.4 -30.45 -85.85 -31.05 -84.65 -31.05 -84.15 -30.65 -83.65 -30.05 -83.5 -29.45 -83.65 -28.85 -84.15 -28.05 -83.3 -28.65 -82.45 -29.05 -81.75 -28.85 -81.05 -28.45 -80.55 -28.05 -80.35 -27.4 -80.35 -26.6 -79.85 -26.6 -79.5 -26.0 -79.15 -25.15 -79.0 -24.15 -79.0 -21.9" fill="#507039" fill-rule="evenodd" stroke="none"/>
    <path d="M-101.8 -8.85 L-101.45 -8.4 -101.25 -8.0 -101.45 -7.6 -101.8 -7.2 -102.8 -7.2 -103.35 -7.6 -103.7 -6.8 -104.2 -6.35 -104.9 -6.15 -106.65 -6.15 -107.3 -6.55 -108.0 -7.2 -108.55 -7.8 -108.7 -8.4 -108.7 -8.85 -108.55 -9.8 -108.0 -10.65 -107.5 -11.05 -106.8 -11.45 -106.3 -11.45 -106.3 -12.25 -105.95 -12.7 Q-105.75 -12.75 -105.6 -12.9 L-105.05 -12.9 -104.9 -13.3 -104.9 -13.4 -105.25 -13.3 -105.95 -13.7 -106.45 -14.3 -106.8 -15.35 -107.0 -16.35 -107.0 -17.4 -106.65 -19.25 -106.1 -20.25 -105.4 -21.3 -104.4 -22.3 -103.35 -22.9 -102.3 -23.3 -101.45 -23.3 -100.75 -22.5 -100.4 -21.05 -100.4 -21.7 -100.05 -22.3 -99.7 -22.7 -98.65 -23.1 -98.3 -22.9 -98.0 -22.5 -97.8 -21.7 -97.65 -22.3 -96.95 -22.7 -96.25 -22.7 -95.4 -23.55 -95.4 -23.95 -95.55 -24.15 -95.4 -25.15 -95.05 -26.2 -94.0 -28.45 -93.15 -29.85 -91.25 -31.45 -88.45 -32.7 -87.25 -32.9 -86.75 -32.7 -86.4 -32.7 -86.05 -32.3 -86.05 -31.25 -86.4 -30.45 -85.85 -31.05 -84.65 -31.05 -84.15 -30.65 -83.65 -30.05 -83.5 -29.45 -83.65 -28.85 -84.15 -28.05 -83.3 -28.65 -82.45 -29.05 -81.75 -28.85 -81.05 -28.45 -80.55 -28.05 -80.35 -27.4 -80.35 -26.6 -79.85 -26.6 -79.5 -26.0 -79.15 -25.15 -79.0 -24.15 -79.0 -21.9 -79.5 -20.25 -80.0 -19.25 -81.75 -17.6 -82.6 -17.2 -83.65 -17.0 -83.95 -17.2 -84.5 -17.4 -85.0 -17.8 -84.65 -17.2 -84.5 -16.55 -84.5 -15.95 -84.65 -14.3 -85.15 -12.7 -85.85 -11.25 -87.75 -8.6 -89.5 -7.2 -90.7 -6.8 -91.9 -6.15 -93.15 -5.95 -94.35 -5.95 -94.5 -5.15 -94.85 -4.75 -95.4 -4.3 -96.25 -4.1 -97.8 -4.5 -99.35 -5.75 -100.4 -7.4 -100.9 -8.0 -101.1 -8.85 -101.25 -8.6 M-95.4 -23.55 L-95.2 -23.75 -94.7 -23.3 -95.05 -23.3 -95.4 -23.55 M-104.9 -13.4 L-104.9 -13.7 -104.2 -13.5 -104.75 -13.5 -104.9 -13.4 M-106.3 -11.45 L-105.95 -11.25 -105.95 -10.65 -106.3 -11.45 M-80.35 -26.6 L-80.9 -26.0 M-85.0 -17.8 L-85.35 -18.4 M-94.35 -5.95 L-95.4 -6.15 -96.05 -7.0 -96.25 -7.4 -96.25 -8.0 -94.85 -7.2 -94.5 -6.55 -94.35 -5.95" fill="none" stroke="#010101" stroke-linecap="round" stroke-linejoin="round" stroke-width="0.5"/>
    <path d="M237.15 -38.85 L237.3 -38.05 237.15 -37.4 236.6 -36.8 237.3 -37.2 238.15 -37.4 239.05 -37.4 239.55 -37.0 240.1 -36.4 240.25 -35.8 240.1 -34.95 240.6 -34.95 240.95 -34.35 241.3 -32.3 241.1 -31.25 241.1 -30.25 240.95 -29.65 240.4 -28.65 238.0 -26.2 237.15 -25.8 236.1 -25.8 235.75 -26.0 235.25 -26.2 235.0 -26.5 235.25 -25.35 235.25 -24.75 234.9 -23.3 234.2 -21.7 233.35 -20.25 230.2 -17.0 226.95 -15.75 225.7 -15.55 224.5 -15.75 224.45 -15.75 224.5 -15.55 224.35 -14.95 224.0 -14.5 223.3 -14.1 222.45 -14.1 221.75 -14.3 220.85 -14.7 220.2 -15.35 219.65 -15.95 218.6 -17.6 218.25 -18.4 218.1 -19.0 217.4 -19.0 217.75 -18.6 217.75 -18.0 217.6 -17.6 216.35 -17.6 215.85 -18.0 215.5 -17.4 214.8 -17.0 214.1 -16.75 213.25 -16.75 212.4 -17.0 211.7 -17.4 211.0 -18.0 210.65 -18.8 210.65 -19.85 210.85 -20.65 211.35 -21.5 212.75 -22.3 213.25 -22.3 213.25 -22.9 213.45 -23.1 214.1 -23.55 214.45 -23.55 214.65 -23.75 214.75 -23.95 214.3 -23.95 213.95 -24.15 213.25 -24.95 213.1 -26.0 213.1 -28.05 213.6 -29.65 214.1 -30.65 215.0 -31.7 217.05 -33.3 218.1 -33.5 218.6 -33.5 219.3 -33.1 219.65 -32.5 219.65 -31.9 219.85 -31.05 220.0 -31.7 220.35 -32.3 220.7 -32.7 221.2 -32.9 221.75 -32.9 222.1 -32.7 222.45 -32.3 222.45 -31.45 222.75 -32.1 222.95 -32.3 223.3 -32.5 224.0 -32.3 225.0 -33.15 225.0 -33.95 225.2 -34.75 225.55 -35.8 227.8 -39.25 229.85 -40.7 232.65 -41.7 234.35 -41.7 234.7 -41.5 235.05 -40.7 234.9 -40.1 234.55 -39.25 235.05 -39.85 235.6 -39.85 236.25 -39.65 236.8 -39.25 237.15 -38.85" fill="#3c6435" fill-rule="evenodd" stroke="none"/>
    <path d="M217.4 -19.0 L217.75 -18.6 217.75 -18.0 217.6 -17.6 216.35 -17.6 215.85 -18.0 215.8 -17.9 215.5 -17.4 214.8 -17.0 214.1 -16.75 213.25 -16.75 212.4 -17.0 211.7 -17.4 211.0 -18.0 210.65 -18.8 210.65 -19.85 210.85 -20.65 211.35 -21.5 212.75 -22.3 213.25 -22.3 213.25 -22.9 213.45 -23.1 214.1 -23.55 214.45 -23.55 214.65 -23.75 214.75 -23.95 214.3 -23.95 213.95 -24.15 213.25 -24.95 213.1 -26.0 213.1 -28.05 213.6 -29.65 214.1 -30.65 215.0 -31.7 217.05 -33.3 218.1 -33.5 218.6 -33.5 219.3 -33.1 219.65 -32.5 219.65 -31.9 219.85 -31.05 220.0 -31.7 220.35 -32.3 220.7 -32.7 221.2 -32.9 221.75 -32.9 222.1 -32.7 222.45 -32.3 222.45 -31.45 222.75 -32.1 222.95 -32.3 223.3 -32.5 224.0 -32.3 225.0 -33.15 225.0 -33.95 225.2 -34.75 225.55 -35.8 227.8 -39.25 229.85 -40.7 232.65 -41.7 234.35 -41.7 234.7 -41.5 235.05 -40.7 234.9 -40.1 234.55 -39.25 235.05 -39.85 235.6 -39.85 236.25 -39.65 236.8 -39.25 237.15 -38.85 237.3 -38.05 237.15 -37.4 236.6 -36.8 237.3 -37.2 238.15 -37.4 239.05 -37.4 239.55 -37.0 240.1 -36.4 240.25 -35.8 240.1 -34.95 240.6 -34.95 240.95 -34.35 241.3 -32.3 241.1 -31.25 241.1 -30.25 240.95 -29.65 240.4 -28.65 238.0 -26.2 237.15 -25.8 236.1 -25.8 235.75 -26.0 235.25 -26.2 235.0 -26.5 235.25 -25.35 235.25 -24.75 234.9 -23.3 234.2 -21.7 233.35 -20.25 230.2 -17.0 226.95 -15.75 225.7 -15.55 224.5 -15.75 224.45 -15.75 224.5 -15.55 224.35 -14.95 224.0 -14.5 223.3 -14.1 222.45 -14.1 221.75 -14.3 220.85 -14.7 220.2 -15.35 219.65 -15.95 218.6 -17.6 218.25 -18.4 218.1 -19.0 217.95 -19.0 M240.1 -34.95 L239.55 -34.35 M235.0 -26.5 L234.35 -27.2 234.9 -26.8 235.0 -26.5 M225.0 -33.15 L225.2 -33.3 225.7 -32.9 225.35 -32.9 225.0 -33.1 225.0 -33.15 M214.75 -23.95 L214.8 -24.15 215.35 -24.15 214.8 -23.95 214.75 -23.95 M213.25 -22.3 L213.6 -21.9 213.45 -21.3 213.25 -22.1 213.25 -22.3 M224.45 -15.75 L223.45 -15.95 223.1 -16.35 222.95 -16.75 222.75 -17.4 222.75 -18.0 223.45 -17.6 224.0 -17.0 224.35 -16.35 224.45 -15.75" fill="none" stroke="#010101" stroke-linecap="round" stroke-linejoin="round" stroke-width="0.5"/>
    <path d="M231.45 -29.85 L233.35 -30.85 234.35 -31.25 236.25 -30.85 237.3 -30.25 237.85 -30.65 238.5 -31.05 239.2 -31.05 240.4 -30.65 240.75 -30.25 240.75 -29.65 240.4 -29.05 239.75 -29.65 239.2 -29.25 240.1 -28.85 240.95 -28.25 242.35 -26.4 242.65 -25.6 242.65 -24.55 242.45 -23.95 242.85 -23.95 243.35 -23.75 243.9 -23.1 244.05 -22.7 244.05 -22.1 243.7 -21.5 243.0 -21.3 244.05 -20.05 244.75 -18.6 244.9 -17.2 244.9 -15.55 244.4 -14.1 243.7 -12.9 243.0 -12.25 242.5 -11.65 240.75 -10.85 239.4 -10.65 238.35 -10.65 237.3 -11.05 236.6 -11.45 234.7 -13.7 234.0 -14.1 234.35 -13.5 234.55 -12.9 234.55 -12.25 233.85 -11.05 233.35 -10.4 231.75 -9.45 230.05 -9.05 228.5 -9.05 227.6 -9.25 226.95 -9.6 226.4 -10.2 225.9 -11.05 225.55 -11.25 225.55 -10.65 225.7 -10.4 225.2 -10.85 224.7 -11.45 224.5 -12.05 224.5 -13.5 224.7 -14.1 225.55 -15.75 226.6 -17.2 227.8 -18.4 230.2 -20.05 229.5 -20.65 229.0 -21.7 228.65 -22.7 228.5 -23.75 228.65 -24.95 229.35 -27.0 230.75 -29.05 231.45 -29.85" fill="#507039" fill-rule="evenodd" stroke="none"/>
    <path d="M225.9 -11.05 L226.4 -10.2 226.95 -9.6 227.6 -9.25 228.5 -9.05 230.05 -9.05 231.75 -9.45 233.35 -10.4 233.85 -11.05 234.55 -12.25 234.55 -12.9 234.35 -13.5 234.0 -14.1 234.7 -13.7 236.6 -11.45 237.3 -11.05 238.35 -10.65 239.4 -10.65 240.75 -10.85 242.5 -11.65 243.0 -12.25 243.7 -12.9 244.4 -14.1 244.9 -15.55 244.9 -17.2 244.75 -18.6 244.05 -20.05 243.0 -21.3 243.7 -21.5 244.05 -22.1 244.05 -22.7 243.9 -23.1 243.35 -23.75 242.85 -23.95 242.45 -23.95 242.35 -23.75 241.65 -23.3 242.15 -23.95 242.45 -23.95 242.65 -24.55 242.65 -25.6 242.35 -26.4 240.95 -28.25 240.1 -28.85 239.2 -29.25 239.75 -29.65 240.4 -29.05 240.75 -29.65 240.75 -30.25 240.4 -30.65 239.2 -31.05 238.5 -31.05 237.85 -30.65 237.3 -30.25 236.25 -30.85 234.35 -31.25 233.35 -30.85 231.45 -29.85 230.75 -29.05 229.35 -27.0 228.65 -24.95 228.5 -23.75 228.65 -22.7 229.0 -21.7 229.5 -20.65 230.2 -20.05 227.8 -18.4 226.6 -17.2 225.55 -15.75 224.7 -14.1 224.5 -13.5 224.5 -12.05 224.7 -11.45 225.2 -10.85 225.7 -10.4 225.55 -10.65 225.55 -11.25" fill="none" stroke="#010101" stroke-linecap="round" stroke-linejoin="round" stroke-width="0.5"/>
    <path d="M231.6 -16.75 L231.25 -15.95 230.9 -15.75 Q230.55 -15.6 230.2 -15.55 L229.35 -15.55 230.05 -15.35 230.55 -14.95 230.55 -13.7 230.05 -13.1 229.75 -12.85 229.85 -12.9 Q230.15 -12.75 230.4 -12.7 L230.55 -12.25 230.55 -11.65 229.85 -10.0 229.2 -9.45 228.65 -9.05 227.95 -8.85 227.1 -9.05 228.3 -9.05 229.2 -9.45 229.5 -10.0 229.7 -10.85 229.35 -11.65 228.85 -12.25 228.2 -12.55 222.25 -10.2 218.6 -9.25 218.25 -9.25 217.95 -9.45 217.95 -9.6 216.9 -8.85 216.2 -8.4 213.1 -8.0 208.05 -8.85 206.15 -9.8 205.1 -10.65 203.55 -12.7 203.05 -13.7 202.35 -13.5 201.85 -13.5 201.15 -13.9 200.6 -14.7 200.45 -15.35 200.45 -16.15 201.15 -18.0 202.2 -19.65 202.7 -20.25 203.4 -20.65 203.2 -20.85 203.2 -20.65 203.05 -21.3 202.55 -20.65 202.2 -20.45 201.85 -20.45 201.5 -20.65 201.3 -21.05 201.3 -22.1 200.45 -22.1 199.75 -22.5 199.25 -23.1 198.9 -24.55 198.9 -25.35 199.25 -26.2 199.75 -27.0 200.6 -27.4 201.5 -27.6 202.55 -27.6 203.2 -27.2 203.75 -26.8 204.1 -26.4 204.1 -26.25 204.8 -26.6 205.3 -26.4 205.65 -26.2 205.8 -25.8 206.35 -25.8 206.15 -26.0 206.15 -26.8 206.7 -27.6 208.4 -28.65 209.45 -29.05 211.2 -29.45 212.4 -29.45 215.0 -28.65 216.7 -27.2 217.05 -26.4 216.9 -26.0 216.55 -25.6 216.05 -25.15 215.35 -24.75 216.55 -24.75 217.05 -24.55 217.6 -24.15 217.75 -23.75 217.75 -23.3 217.6 -22.9 216.9 -22.5 217.95 -22.5 218.1 -22.1 218.25 -21.5 219.6 -21.1 220.0 -21.5 221.05 -21.7 226.4 -21.5 Q226.95 -21.3 227.45 -21.05 L228.65 -20.25 230.75 -18.2 231.45 -17.2 231.6 -16.75 M229.75 -12.85 L228.5 -12.7 228.3 -12.6 228.85 -12.45 229.5 -12.7 229.75 -12.85" fill="#3c6435" fill-rule="evenodd" stroke="none"/>
    <path d="M203.05 -21.3 L202.55 -20.65 202.2 -20.45 201.85 -20.45 201.5 -20.65 201.3 -21.05 201.3 -22.1 200.45 -22.1 199.75 -22.5 199.25 -23.1 198.9 -24.55 198.9 -25.35 199.25 -26.2 199.75 -27.0 200.6 -27.4 201.5 -27.6 202.55 -27.6 203.2 -27.2 203.75 -26.8 204.1 -26.4 204.1 -26.25 204.8 -26.6 205.3 -26.4 205.65 -26.2 205.8 -25.8 206.35 -25.8 206.15 -26.0 206.15 -26.8 206.7 -27.6 208.4 -28.65 209.45 -29.05 211.2 -29.45 212.4 -29.45 215.0 -28.65 216.7 -27.2 217.05 -26.4 216.9 -26.0 216.55 -25.6 216.05 -25.15 215.35 -24.75 216.55 -24.75 217.05 -24.55 217.6 -24.15 217.75 -23.75 217.75 -23.3 217.6 -22.9 216.9 -22.5 217.95 -22.5 218.1 -22.1 218.25 -21.5 219.6 -21.1 220.0 -21.5 221.05 -21.7 226.4 -21.5 Q226.95 -21.3 227.45 -21.05 L228.65 -20.25 230.75 -18.2 231.45 -17.2 231.6 -16.75 231.25 -15.95 230.9 -15.75 Q230.55 -15.6 230.2 -15.55 L229.35 -15.55 230.05 -15.35 230.55 -14.95 230.55 -13.7 230.05 -13.1 229.75 -12.85 229.85 -12.9 Q230.15 -12.75 230.4 -12.7 L230.55 -12.25 230.55 -11.65 229.85 -10.0 229.2 -9.45 228.65 -9.05 227.95 -8.85 227.1 -9.05 228.3 -9.05 229.2 -9.45 229.5 -10.0 229.7 -10.85 229.35 -11.65 228.85 -12.25 228.2 -12.55 222.25 -10.2 218.6 -9.25 218.25 -9.25 217.95 -9.45 217.95 -9.6 216.9 -8.85 216.2 -8.4 213.1 -8.0 208.05 -8.85 206.15 -9.8 205.1 -10.65 203.55 -12.7 203.05 -13.7 202.35 -13.5 201.85 -13.5 201.15 -13.9 200.6 -14.7 200.45 -15.35 200.45 -16.15 201.15 -18.0 202.2 -19.65 202.7 -20.25 203.25 -20.6 203.2 -20.85 203.4 -20.65 203.25 -20.6 M229.75 -12.85 L229.5 -12.7 228.85 -12.45 228.3 -12.6 228.2 -12.55 227.95 -12.7 228.3 -12.6 228.5 -12.7 229.75 -12.85 M206.35 -25.8 L206.7 -25.8 206.7 -25.35 206.35 -25.8 M204.1 -26.25 L204.1 -26.0 203.9 -26.0 203.4 -25.6 203.9 -26.2 204.1 -26.25 M201.3 -22.1 L201.3 -22.3 M203.05 -13.7 L203.05 -15.15 203.4 -15.55 204.45 -16.15 204.1 -14.5 203.05 -13.7 M219.6 -21.1 L219.85 -21.05 219.5 -20.45 219.5 -21.05 219.6 -21.1 M217.95 -9.6 L217.95 -9.8 218.25 -10.2 217.95 -9.6" fill="none" stroke="#010101" stroke-linecap="round" stroke-linejoin="round" stroke-width="0.5"/>
    <path d="M211.85 -25.35 L213.45 -23.55 213.8 -22.9 214.1 -22.1 214.3 -21.05 214.3 -19.85 213.95 -18.6 213.45 -18.0 212.75 -17.4 209.45 -15.55 210.15 -15.75 210.85 -15.75 211.55 -15.55 212.05 -15.15 213.1 -13.9 213.45 -13.1 213.65 -11.95 211.85 -11.65 206.7 -11.45 203.9 -12.05 203.2 -12.45 202.85 -12.9 202.7 -13.3 201.65 -12.7 199.6 -12.25 197.35 -12.9 196.3 -13.3 194.4 -14.95 193.0 -16.55 192.5 -17.6 192.3 -18.6 192.3 -19.65 192.5 -20.65 193.0 -21.5 193.9 -22.3 193.55 -22.9 193.35 -23.55 193.55 -24.35 193.9 -24.95 194.2 -25.35 194.75 -25.6 195.45 -25.35 195.95 -24.95 195.1 -24.35 195.45 -23.75 195.95 -24.55 197.85 -25.8 199.95 -26.2 200.8 -26.0 201.5 -25.35 201.5 -26.0 202.0 -26.6 202.55 -26.8 203.75 -26.8 204.1 -26.4 204.25 -26.0 204.25 -25.6 207.35 -26.6 210.5 -26.0 211.85 -25.35 M213.65 -11.95 L214.3 -12.05 215.9 -12.7 217.05 -13.9 217.6 -13.9 217.95 -14.1 216.35 -12.9 215.9 -12.7 213.75 -10.4 213.6 -9.8 212.9 -8.4 212.4 -7.8 211.55 -7.4 210.65 -7.2 213.75 -10.4 213.8 -10.65 213.8 -11.45 213.65 -11.95" fill="#507039" fill-rule="evenodd" stroke="none"/>
    <path d="M211.85 -25.35 L210.5 -26.0 207.35 -26.6 204.25 -25.6 204.25 -26.0 204.1 -26.4 203.75 -26.8 202.55 -26.8 202.0 -26.6 201.5 -26.0 201.5 -25.35 201.85 -25.15 202.0 -24.55 201.65 -24.95 201.5 -25.35 200.8 -26.0 199.95 -26.2 197.85 -25.8 195.95 -24.55 195.45 -23.75 195.1 -24.35 195.95 -24.95 195.45 -25.35 194.75 -25.6 194.2 -25.35 193.9 -24.95 193.55 -24.35 193.35 -23.55 193.55 -22.9 193.9 -22.3 193.0 -21.5 192.5 -20.65 192.3 -19.65 192.3 -18.6 192.5 -17.6 193.0 -16.55 194.4 -14.95 196.3 -13.3 197.35 -12.9 199.6 -12.25 201.65 -12.7 202.7 -13.3 202.85 -12.9 203.2 -12.45 203.9 -12.05 206.7 -11.45 211.85 -11.65 213.65 -11.95 213.45 -13.1 213.1 -13.9 212.05 -15.15 211.55 -15.55 210.85 -15.75 210.15 -15.75 209.45 -15.55 212.75 -17.4 213.45 -18.0 213.95 -18.6 214.3 -19.85 214.3 -21.05 214.1 -22.1 213.8 -22.9 213.45 -23.55 211.85 -25.35 M213.65 -11.95 L214.3 -12.05 216.35 -12.9 217.95 -14.1 217.6 -13.9 217.05 -13.9 M210.65 -7.2 L211.55 -7.4 212.4 -7.8 212.9 -8.4 213.6 -9.8 213.8 -10.65 213.8 -11.45 213.65 -11.95" fill="none" stroke="#010101" stroke-linecap="round" stroke-linejoin="round" stroke-width="0.5"/>
    <path d="M184.55 -27.4 L187.3 -26.6 185.75 -27.85 187.8 -27.85 186.8 -29.25 188.85 -28.05 188.5 -28.45 188.15 -29.05 188.7 -28.85 188.85 -28.85 189.05 -29.05 187.15 -30.85 189.05 -30.05 190.6 -28.85 190.4 -29.65 190.05 -30.25 189.7 -31.05 189.05 -31.7 188.5 -32.3 186.95 -33.1 186.1 -33.3 187.45 -33.1 188.85 -32.3 189.9 -31.45 190.75 -30.25 189.9 -31.9 193.7 -28.65 194.05 -27.6 195.25 -29.25 195.45 -28.65 195.45 -27.85 195.8 -26.4 196.45 -28.65 196.45 -27.6 196.65 -26.6 197.0 -25.8 197.5 -24.95 199.05 -21.9 204.45 -18.4 210.65 -14.95 218.45 -11.25 219.85 -10.85 225.2 -10.65 226.05 -11.05 226.75 -11.85 226.25 -12.7 226.75 -12.25 227.45 -12.05 227.95 -12.05 228.3 -12.25 228.85 -12.45 229.2 -12.7 229.5 -13.1 229.85 -13.7 230.4 -13.5 230.2 -14.1 229.85 -14.5 231.6 -14.5 231.1 -15.55 231.6 -15.15 231.95 -14.7 232.1 -14.3 232.3 -15.55 232.3 -16.75 232.45 -16.15 233.0 -15.55 233.7 -14.3 234.0 -15.55 234.0 -16.75 234.7 -15.95 234.35 -17.0 234.2 -18.4 234.55 -19.65 234.9 -20.25 235.25 -20.65 234.9 -19.65 234.7 -18.6 234.9 -17.6 235.6 -15.75 237.15 -14.1 238.0 -13.5 237.5 -14.7 239.05 -13.1 238.85 -14.1 238.5 -15.35 239.2 -14.1 239.75 -13.5 239.9 -12.7 239.9 -15.55 240.4 -14.5 241.1 -12.7 241.1 -11.65 242.5 -11.65 243.9 -11.85 245.95 -13.7 246.15 -13.7 246.85 -13.3 246.65 -13.9 246.3 -14.5 247.35 -13.5 247.5 -14.7 247.5 -15.35 247.35 -15.95 248.4 -13.3 247.5 -17.8 248.05 -15.75 248.55 -14.5 249.1 -13.7 248.4 -20.05 248.2 -21.05 249.25 -19.85 249.75 -19.45 253.4 -18.4 252.35 -20.25 254.6 -17.8 253.9 -19.45 254.95 -18.6 255.65 -18.2 256.15 -17.8 255.85 -18.4 255.5 -18.8 256.15 -18.4 256.85 -18.2 256.5 -18.6 257.2 -18.4 256.85 -19.0 257.4 -18.4 258.95 -17.2 259.65 -17.0 259.3 -17.8 260.65 -17.0 262.05 -16.75 266.75 -17.0 269.0 -17.4 270.35 -17.0 270.55 -17.2 270.7 -17.6 271.25 -17.0 271.25 -17.6 271.55 -17.4 272.1 -17.0 272.8 -17.2 273.5 -17.0 Q273.75 -17.05 274.0 -17.2 L274.35 -17.0 274.85 -16.55 281.6 -16.35 285.05 -16.55 306.2 -20.45 311.55 -20.85 316.55 -20.25 319.15 -19.45 324.0 -16.55 324.7 -16.35 325.55 -17.0 328.35 -15.15 334.05 -12.9 349.45 -8.6 349.25 -8.6 350.45 -8.15 352.2 -8.0 353.75 -8.2 353.75 -7.8 353.95 -8.0 353.6 -7.4 353.75 -7.4 353.95 -7.6 354.1 -7.6 354.3 -7.4 354.1 -7.4 354.45 -6.55 356.2 -7.4 357.9 -2.5 358.45 -1.45 359.8 0.8 360.85 1.6 361.2 2.05 361.2 2.45 360.85 2.65 355.85 2.65 355.15 2.85 355.15 3.05 355.3 3.25 358.1 4.1 357.55 4.3 357.25 4.5 359.5 4.1 359.65 4.9 359.65 5.9 360.35 5.5 361.05 5.3 361.2 5.3 361.4 5.7 361.75 6.1 362.05 5.7 362.05 5.1 362.4 6.95 364.3 2.65 364.15 4.1 364.15 5.5 364.5 7.15 365.9 10.0 367.95 11.8 369.15 12.25 369.35 11.8 369.15 11.6 369.15 11.0 370.85 11.2 370.7 10.6 370.7 9.8 371.4 11.0 371.4 10.2 371.55 9.4 372.4 10.4 372.4 9.8 372.75 10.0 373.45 10.8 373.65 10.0 373.65 9.0 374.0 11.0 373.8 9.8 374.0 8.6 374.15 9.2 374.5 10.0 375.55 11.2 375.9 12.0 376.25 12.65 376.4 13.45 376.25 14.05 376.55 13.45 378.3 12.25 378.8 12.85 378.8 11.6 379.85 14.05 380.2 13.25 380.2 12.0 380.05 11.4 380.75 13.05 380.75 10.8 380.55 9.6 380.2 8.6 381.95 12.85 382.3 14.05 385.05 18.6 386.1 21.65 386.8 25.15 386.8 26.95 385.9 30.8 385.05 32.65 381.95 36.35 376.75 40.05 369.35 43.1 359.15 45.55 352.9 46.6 337.85 47.8 319.15 48.0 283.5 45.75 193.35 35.95 151.5 32.65 112.75 30.8 65.7 30.05 44.05 30.25 4.25 31.65 -31.05 34.1 -76.2 38.8 -89.15 40.45 -112.15 42.5 -131.2 43.1 -163.9 43.1 -212.35 41.45 -237.1 40.25 -261.7 38.6 -317.55 32.85 -344.35 28.6 -358.2 25.35 -368.25 22.05 -372.75 19.4 -373.6 18.35 -374.1 17.55 -374.45 16.55 -374.3 15.5 -373.95 14.7 -373.95 14.5 -374.1 14.05 -376.0 10.4 -376.0 10.2 -376.7 9.8 -377.4 9.2 -377.05 9.4 -377.6 9.0 -377.25 8.8 -377.05 8.6 -377.25 8.4 -377.4 8.4 -377.4 7.95 -377.6 7.55 -377.75 7.35 -378.1 7.15 -381.75 7.15 -382.75 6.55 -382.95 6.1 -384.65 -1.25 -385.0 -2.5 -385.35 -2.7 -385.9 -3.3 -385.9 -2.9 -387.45 -7.2 -386.75 -6.8 -387.1 -7.4 -387.1 -7.8 -387.45 -9.05 -387.1 -9.05 -387.1 -10.0 -386.9 -10.2 -386.05 -10.2 -385.35 -9.8 -384.35 -9.45 -384.35 -9.6 -384.85 -10.4 -383.65 -9.05 -383.65 -9.25 -384.0 -9.45 -383.65 -9.6 -383.3 -9.6 -383.45 -9.8 -382.75 -10.0 -382.95 -10.2 -383.1 -10.2 -383.45 -10.4 -382.75 -10.65 -382.25 -10.65 -382.95 -11.25 -382.4 -11.25 -382.4 -11.65 -382.75 -12.05 -381.55 -12.05 -381.9 -12.9 -382.6 -13.3 -383.3 -13.5 -382.95 -13.5 -381.75 -13.1 -382.6 -14.1 -381.05 -13.5 -381.55 -13.9 -379.65 -13.5 -380.0 -13.9 -378.95 -13.9 -379.65 -14.5 -380.35 -15.35 -380.85 -16.35 -381.2 -17.4 -380.15 -15.75 -378.45 -14.95 -378.8 -15.15 -378.95 -15.55 -377.6 -15.55 -375.7 -16.15 -375.5 -15.95 -375.5 -14.7 -375.35 -14.7 -375.0 -14.95 -373.25 -16.55 -371.85 -18.4 -371.2 -18.2 -370.85 -18.2 -370.3 -18.4 -369.8 -18.4 -369.6 -18.8 Q-369.25 -19.0 -368.95 -19.25 L-368.4 -19.25 -346.25 -22.7 -336.9 -26.0 -318.75 -35.35 -318.05 -36.4 -317.7 -37.4 -317.9 -36.2 -316.0 -39.25 -316.5 -38.05 -316.65 -36.8 -316.0 -38.45 -315.65 -36.4 -315.3 -37.6 -315.1 -36.6 -314.95 -36.6 -314.95 -36.8 -314.6 -36.8 -310.45 -38.05 -312.15 -38.05 -312.85 -38.25 -313.55 -38.65 -313.9 -39.25 -314.25 -39.65 -314.6 -40.9 -314.6 -42.1 -314.4 -43.55 -314.05 -45.0 -313.55 -46.2 -312.85 -48.45 -313.2 -45.0 -313.05 -43.95 -312.7 -43.15 -312.15 -42.35 -311.5 -41.7 -311.65 -43.35 -311.65 -43.75 -311.3 -42.55 -309.8 -40.7 -310.3 -41.7 -310.6 -42.95 -310.8 -44.15 -310.6 -45.4 -310.6 -43.95 -310.3 -42.35 -309.95 -41.7 -308.75 -40.7 -308.05 -40.5 -309.1 -41.7 -309.25 -42.55 -309.25 -43.35 -308.55 -41.7 -308.05 -40.9 -307.35 -40.3 -307.55 -41.1 -307.9 -41.9 -306.85 -41.3 -305.8 -40.5 -306.15 -42.75 -305.65 -41.7 -305.8 -42.75 -304.75 -42.1 -304.75 -43.35 -304.25 -44.6 -302.5 -46.85 -303.2 -43.55 -303.2 -42.75 -303.05 -41.9 -302.7 -41.3 -302.15 -40.7 -301.8 -41.9 -301.45 -40.7 -300.95 -39.65 -300.8 -40.5 -300.8 -41.5 -300.45 -40.7 -299.9 -39.85 -299.9 -40.3 -299.55 -39.85 -297.5 -39.25 -297.0 -39.45 -295.75 -39.25 -294.55 -39.25 -292.15 -38.65 -288.3 -38.45 -287.65 -38.25 -282.95 -36.2 -282.6 -36.0 -282.6 -35.8 -282.8 -35.55 -283.15 -35.35 -284.85 -34.95 -285.05 -34.75 -285.05 -34.55 -284.85 -34.35 -272.6 -30.65 -256.5 -27.0 -250.1 -26.0 -239.35 -24.95 -231.75 -25.15 -226.55 -26.4 -224.8 -27.0 -223.45 -27.85 -222.4 -28.65 -221.55 -30.05 -221.35 -30.65 -220.65 -30.45 -220.3 -30.25 -220.3 -30.65 -220.15 -31.05 -219.65 -30.45 -219.45 -30.65 -219.45 -31.05 -219.3 -31.05 -218.95 -30.65 -218.25 -31.25 -218.25 -31.05 -217.4 -31.05 -215.45 -31.9 -214.45 -32.7 -212.9 -34.35 -212.35 -35.15 -212.2 -36.0 -212.2 -35.15 -212.35 -34.55 -212.7 -33.75 -213.05 -33.1 -212.7 -33.3 -212.7 -32.5 -212.2 -32.7 -211.5 -32.7 -211.15 -32.3 -210.65 -31.9 -209.25 -31.9 -209.05 -32.3 -208.05 -31.7 -202.0 -31.9 -195.55 -31.05 -183.1 -30.85 -182.75 -31.25 -185.2 -31.25 -182.4 -31.7 -181.9 -31.9 -180.85 -32.7 -180.5 -33.3 -180.7 -32.5 -180.7 -31.9 -180.15 -32.3 -179.65 -33.1 -179.65 -32.7 -179.85 -32.1 -179.15 -32.9 -178.95 -32.7 -178.6 -32.9 -178.45 -32.1 -178.1 -32.5 -177.75 -33.1 -177.75 -32.3 -177.25 -32.7 -176.9 -33.95 -176.9 -34.75 -177.6 -37.4 -175.65 -33.95 -175.35 -35.55 -175.0 -33.95 -174.3 -34.35 -173.75 -34.75 -173.95 -33.75 -173.95 -32.9 -173.25 -33.75 -173.6 -32.9 -172.4 -33.3 -171.35 -33.95 -172.05 -33.1 -172.55 -32.3 -171.7 -32.5 -171.85 -32.1 -171.85 -31.7 -172.55 -31.45 -171.85 -30.65 -170.85 -30.05 -165.8 -29.45 -164.25 -29.85 -162.85 -30.45 -159.6 -31.25 -158.7 -31.9 -159.05 -30.85 -158.0 -31.05 -157.35 -31.45 -156.65 -32.1 -155.95 -32.9 -156.3 -32.3 -156.45 -31.9 -156.65 -30.85 -155.45 -31.25 -156.1 -30.85 -156.8 -30.25 -155.75 -30.05 -150.6 -27.2 -148.15 -26.2 -147.45 -26.0 -146.95 -25.6 -146.6 -25.15 -146.45 -24.75 -146.45 -23.3 -146.6 -22.5 -146.45 -21.7 -146.25 -21.3 -145.9 -20.85 -145.55 -20.65 -144.85 -20.45 -143.15 -20.65 -141.75 -21.05 -140.2 -22.3 -140.9 -21.05 -139.85 -21.5 -138.1 -22.7 -137.6 -23.3 -138.8 -21.05 -137.8 -21.7 -136.75 -22.5 -137.6 -21.05 -136.4 -21.7 -136.9 -20.25 -136.55 -20.45 -135.55 -20.85 -136.55 -20.05 -134.65 -20.65 -130.0 -20.95 -130.15 -20.65 -130.35 -20.65 -130.45 -20.55 -130.35 -20.65 -130.15 -20.65 -130.0 -20.95 -128.6 -21.05 -130.15 -20.65 -130.45 -20.55 -131.55 -20.05 -132.6 -18.8 -130.7 -20.25 -132.05 -18.6 -131.05 -18.4 -127.75 -18.6 -128.8 -17.8 -129.65 -16.75 -128.8 -17.2 -129.45 -16.55 -129.8 -15.95 -123.95 -18.6 -121.15 -20.45 -119.95 -21.5 -118.9 -22.7 -119.8 -20.85 -122.05 -18.0 -123.4 -17.0 -122.4 -17.2 -121.35 -17.6 -119.8 -19.25 -117.9 -23.55 -118.55 -19.85 -119.25 -18.0 -119.8 -17.4 -120.3 -16.55 -118.4 -18.4 -117.7 -19.45 -117.2 -20.65 -117.7 -17.2 -116.5 -18.6 -117.55 -16.75 -117.35 -16.55 -116.85 -17.2 -117.55 -15.95 -116.65 -16.75 -116.85 -13.3 -116.65 -13.3 -116.3 -13.5 -112.15 -16.75 -108.9 -18.8 -103.5 -21.5 -99.55 -22.3 -95.4 -21.9 -88.65 -18.6 -83.15 -16.55 -64.1 -10.85 -56.85 -9.25 -25.0 -4.1 -7.85 -2.25 26.9 -0.2 60.5 0.2 83.0 -0.85 102.05 -2.7 112.25 -4.5 122.95 -8.0 125.75 -9.8 126.25 -9.8 126.6 -9.6 126.75 -9.25 127.3 -8.4 127.65 -8.4 128.0 -8.6 129.9 -12.9 130.4 -13.7 130.6 -13.9 131.1 -13.3 131.45 -12.45 131.95 -9.6 132.15 -9.25 132.3 -9.25 132.3 -9.45 132.65 -9.25 132.85 -8.4 133.35 -7.4 133.15 -10.2 133.85 -10.2 134.2 -9.8 134.2 -8.2 134.75 -12.25 135.25 -11.45 135.25 -12.25 135.4 -12.9 135.6 -14.5 136.1 -13.7 136.1 -15.15 136.3 -15.15 136.45 -14.95 136.45 -14.7 136.8 -14.7 137.0 -16.15 136.8 -17.6 136.45 -19.0 135.95 -20.45 136.8 -19.45 137.85 -17.0 138.0 -15.55 138.0 -14.5 138.35 -13.9 138.7 -13.7 139.05 -13.3 139.4 -13.3 139.75 -13.1 140.1 -13.3 140.45 -13.7 140.55 -13.9 141.15 -12.45 141.3 -14.1 141.15 -14.95 141.15 -15.95 141.65 -14.1 141.65 -14.7 141.3 -16.75 140.95 -17.8 141.65 -17.2 142.35 -16.15 142.5 -17.0 142.85 -17.4 143.15 -17.6 143.5 -17.6 144.4 -17.4 145.1 -17.0 145.6 -16.55 145.65 -16.55 159.1 -16.15 164.45 -16.75 169.5 -18.6 172.95 -20.65 176.9 -23.75 177.25 -24.55 177.45 -25.35 177.45 -26.2 176.9 -27.0 179.0 -25.35 178.8 -27.2 178.5 -28.85 180.2 -26.2 180.7 -27.6 180.9 -28.85 180.9 -30.65 181.25 -30.05 183.3 -28.25 184.55 -27.4 182.1 -28.45 184.55 -27.4 M351.5 -7.8 L351.25 -7.9 350.45 -8.15 351.25 -7.9 351.5 -7.8 M351.25 -7.9 L350.3 -8.2 350.45 -8.15 350.3 -8.2 351.25 -7.9 M374.0 8.6 L374.0 7.55 374.3 6.35 374.0 8.6 M274.5 -17.0 L274.35 -17.0 273.3 -18.8 274.5 -17.0 M189.2 -32.5 L189.9 -31.9 186.95 -33.75 187.8 -33.5 188.7 -33.1 189.2 -32.5 M145.65 -16.55 L144.9 -16.55 145.6 -15.95 145.75 -15.95 145.95 -16.15 145.65 -16.55 145.95 -16.15 145.75 -15.95 145.6 -15.95 144.9 -16.55 145.65 -16.55 M197.5 -24.95 L197.35 -26.2 198.05 -24.75 197.5 -24.95 M140.55 -13.9 L140.25 -14.5 137.85 -22.5 140.25 -17.2 140.6 -15.95 140.6 -14.1 140.55 -13.9 M-157.7 -33.1 L-158.0 -32.3 -158.7 -31.9 -158.35 -32.5 -157.7 -33.1 M-161.5 -31.25 L-162.85 -30.45 -161.85 -31.45 -160.45 -32.3 -161.5 -31.25 M-117.35 -27.4 L-117.7 -24.75 -118.2 -23.75 -118.9 -22.7 -117.35 -27.4" fill="#3c6435" fill-rule="evenodd" stroke="none"/>
    <path d="M350.45 -8.15 L349.25 -8.6 349.45 -8.6 334.05 -12.9 328.35 -15.15 325.55 -17.0 324.7 -16.35 324.0 -16.55 319.15 -19.45 316.55 -20.25 311.55 -20.85 306.2 -20.45 285.05 -16.55 281.6 -16.35 274.85 -16.55 274.35 -17.0 274.0 -17.2 Q273.75 -17.05 273.5 -17.0 L272.8 -17.2 272.1 -17.0 271.55 -17.4 271.25 -17.6 271.25 -17.0 270.7 -17.6 270.55 -17.2 270.35 -17.0 269.0 -17.4 266.75 -17.0 262.05 -16.75 260.65 -17.0 259.3 -17.8 259.65 -17.0 258.95 -17.2 257.4 -18.4 256.85 -19.0 257.2 -18.4 256.5 -18.6 256.85 -18.2 256.15 -18.4 255.5 -18.8 255.85 -18.4 256.15 -17.8 255.65 -18.2 254.95 -18.6 253.9 -19.45 254.6 -17.8 252.35 -20.25 253.4 -18.4 249.75 -19.45 249.25 -19.85 248.2 -21.05 248.4 -20.05 249.1 -13.7 248.55 -14.5 248.05 -15.75 247.5 -17.8 248.4 -13.3 247.35 -15.95 247.5 -15.35 247.5 -14.7 247.35 -13.5 246.3 -14.5 246.65 -13.9 246.85 -13.3 246.15 -13.7 245.95 -13.7 243.9 -11.85 242.5 -11.65 241.1 -11.65 241.1 -12.7 240.4 -14.5 239.9 -15.55 239.9 -12.7 239.75 -13.5 239.2 -14.1 238.5 -15.35 238.85 -14.1 239.05 -13.1 237.5 -14.7 238.0 -13.5 237.15 -14.1 235.6 -15.75 234.9 -17.6 234.7 -18.6 234.9 -19.65 235.25 -20.65 234.9 -20.25 234.55 -19.65 234.2 -18.4 234.35 -17.0 234.7 -15.95 234.0 -16.75 234.0 -15.55 233.7 -14.3 233.0 -15.55 232.45 -16.15 232.3 -16.75 232.3 -15.55 232.1 -14.3 231.95 -14.7 231.6 -15.15 231.1 -15.55 231.6 -14.5 229.85 -14.5 230.2 -14.1 230.4 -13.5 229.85 -13.7 229.5 -13.1 229.2 -12.7 228.85 -12.45 228.3 -12.25 227.95 -12.05 227.45 -12.05 226.75 -12.25 226.25 -12.7 226.75 -11.85 226.05 -11.05 225.2 -10.65 219.85 -10.85 218.45 -11.25 210.65 -14.95 204.45 -18.4 199.05 -21.9 197.5 -24.95 197.0 -25.8 196.65 -26.6 196.45 -27.6 196.45 -28.65 195.8 -26.4 195.45 -27.85 195.45 -28.65 195.25 -29.25 194.05 -27.6 193.7 -28.65 189.9 -31.9 190.75 -30.25 189.9 -31.45 188.85 -32.3 187.45 -33.1 186.1 -33.3 186.95 -33.1 188.5 -32.3 189.05 -31.7 189.7 -31.05 190.05 -30.25 190.4 -29.65 190.6 -28.85 189.05 -30.05 187.15 -30.85 189.05 -29.05 188.85 -28.85 188.7 -28.85 188.15 -29.05 188.5 -28.45 188.85 -28.05 186.8 -29.25 187.8 -27.85 185.75 -27.85 187.3 -26.6 184.55 -27.4 182.1 -28.45 M-130.0 -20.95 L-134.65 -20.65 -136.55 -20.05 -135.55 -20.85 -136.55 -20.45 -136.9 -20.25 -136.4 -21.7 -137.6 -21.05 -136.75 -22.5 -137.8 -21.7 -138.8 -21.05 -137.6 -23.3 -138.1 -22.7 -139.85 -21.5 -140.9 -21.05 -140.2 -22.3 -141.75 -21.05 -143.15 -20.65 -144.85 -20.45 -145.55 -20.65 -145.9 -20.85 -146.25 -21.3 -146.45 -21.7 -146.6 -22.5 -146.45 -23.3 -146.45 -24.75 -146.6 -25.15 -146.95 -25.6 -147.45 -26.0 -148.15 -26.2 -150.6 -27.2 -155.75 -30.05 -156.8 -30.25 -156.1 -30.85 -155.45 -31.25 -156.65 -30.85 -156.45 -31.9 -156.3 -32.3 -155.95 -32.9 -156.65 -32.1 -157.35 -31.45 -158.0 -31.05 -159.05 -30.85 -158.7 -31.9 -159.6 -31.25 -162.85 -30.45 -164.25 -29.85 -165.8 -29.45 -170.85 -30.05 -171.85 -30.65 -172.55 -31.45 -171.85 -31.7 -171.85 -32.1 -171.7 -32.5 -172.55 -32.3 -172.05 -33.1 -171.35 -33.95 -172.4 -33.3 -173.6 -32.9 -173.25 -33.75 -173.95 -32.9 -173.95 -33.75 -173.75 -34.75 -174.3 -34.35 -175.0 -33.95 -175.35 -35.55 -175.65 -33.95 -177.6 -37.4 -176.9 -34.75 -176.9 -33.95 -177.25 -32.7 -177.75 -32.3 -177.75 -33.1 -178.1 -32.5 -178.45 -32.1 -178.6 -32.9 -178.95 -32.7 -179.15 -32.9 -179.85 -32.1 -179.65 -32.7 -179.65 -33.1 -180.15 -32.3 -180.7 -31.9 -180.7 -32.5 -180.5 -33.3 -180.85 -32.7 -181.9 -31.9 -182.4 -31.7 -185.2 -31.25 -182.75 -31.25 -183.1 -30.85 -195.55 -31.05 -202.0 -31.9 -208.05 -31.7 -209.05 -32.3 -209.25 -31.9 -210.65 -31.9 -211.15 -32.3 -211.5 -32.7 -212.2 -32.7 -212.7 -32.5 -212.7 -33.3 -213.05 -33.1 -212.7 -33.75 -212.35 -34.55 -212.2 -35.15 -212.2 -36.0 -212.35 -35.15 -212.9 -34.35 -214.45 -32.7 -215.45 -31.9 -217.4 -31.05 -218.25 -31.05 -218.25 -31.25 -218.95 -30.65 -219.3 -31.05 -219.45 -31.05 -219.45 -30.65 -219.65 -30.45 -220.15 -31.05 -220.3 -30.65 -220.3 -30.25 -220.65 -30.45 -221.35 -30.65 -221.55 -30.05 -222.4 -28.65 -223.45 -27.85 -224.8 -27.0 -226.55 -26.4 -231.75 -25.15 -239.35 -24.95 -250.1 -26.0 -256.5 -27.0 -272.6 -30.65 -284.85 -34.35 -285.05 -34.55 -285.05 -34.75 -284.85 -34.95 -283.15 -35.35 -282.8 -35.55 -282.6 -35.8 -282.6 -36.0 -282.95 -36.2 -287.65 -38.25 -288.3 -38.45 -292.15 -38.65 -294.55 -39.25 -295.75 -39.25 -297.0 -39.45 -297.5 -39.25 -299.55 -39.85 -299.9 -40.3 -299.9 -39.85 -300.45 -40.7 -300.8 -41.5 -300.8 -40.5 -300.95 -39.65 -301.45 -40.7 -301.8 -41.9 -302.15 -40.7 -302.7 -41.3 -303.05 -41.9 -303.2 -42.75 -303.2 -43.55 -302.5 -46.85 -304.25 -44.6 -304.75 -43.35 -304.75 -42.1 -305.8 -42.75 -305.65 -41.7 -306.15 -42.75 -305.8 -40.5 -306.85 -41.3 -307.9 -41.9 -307.55 -41.1 -307.35 -40.3 -308.05 -40.9 -308.55 -41.7 -309.25 -43.35 -309.25 -42.55 -309.1 -41.7 -308.05 -40.5 -308.75 -40.7 -309.95 -41.7 -310.3 -42.35 -310.6 -43.95 -310.6 -45.4 -310.8 -44.15 -310.6 -42.95 -310.3 -41.7 -309.8 -40.7 -311.3 -42.55 -311.65 -43.75 -311.65 -43.35 -311.5 -41.7 -312.15 -42.35 -312.7 -43.15 -313.05 -43.95 -313.2 -45.0 -312.85 -48.45 -313.55 -46.2 -314.05 -45.0 -314.4 -43.55 -314.6 -42.1 -314.6 -40.9 -314.25 -39.65 -313.9 -39.25 -313.55 -38.65 -312.85 -38.25 -312.15 -38.05 -310.45 -38.05 -314.6 -36.8 -314.95 -36.8 -314.95 -36.6 -315.1 -36.6 -315.3 -37.6 -315.65 -36.4 -316.0 -38.45 -316.65 -36.8 -316.5 -38.05 -316.0 -39.25 -317.9 -36.2 -317.7 -37.4 -318.05 -36.4 -318.75 -35.35 -336.9 -26.0 -346.25 -22.7 -368.4 -19.25 -368.95 -19.25 Q-369.25 -19.0 -369.6 -18.8 L-369.8 -18.4 -370.3 -18.4 -370.85 -18.2 -371.2 -18.2 -371.85 -18.4 -373.25 -16.55 -375.0 -14.95 -375.35 -14.7 -375.5 -14.7 -375.5 -15.95 -375.7 -16.15 -377.6 -15.55 -378.95 -15.55 -378.8 -15.15 -378.45 -14.95 -380.15 -15.75 -381.2 -17.4 -380.85 -16.35 -380.35 -15.35 -379.65 -14.5 -378.95 -13.9 -380.0 -13.9 -379.65 -13.5 -381.55 -13.9 -381.05 -13.5 -382.6 -14.1 -381.75 -13.1 -382.95 -13.5 -383.3 -13.5 -382.6 -13.3 -381.9 -12.9 -381.55 -12.05 -382.75 -12.05 -382.4 -11.65 -382.4 -11.25 -382.95 -11.25 -382.25 -10.65 -382.75 -10.65 -383.45 -10.4 -383.1 -10.2 -382.95 -10.2 -382.75 -10.0 -383.45 -9.8 -383.3 -9.6 -383.65 -9.6 -384.0 -9.45 -383.65 -9.25 -383.65 -9.05 -384.85 -10.4 -384.35 -9.6 -384.35 -9.45 -385.35 -9.8 -386.05 -10.2 -386.9 -10.2 -387.1 -10.0 -387.1 -9.05 -387.45 -9.05 -387.1 -7.8 -387.1 -7.4 -386.75 -6.8 -387.45 -7.2 -385.9 -2.9 -385.9 -3.3 -385.35 -2.7 -385.0 -2.5 -384.65 -1.25 -382.95 6.1 -382.75 6.55 -381.75 7.15 -378.1 7.15 -377.75 7.35 -377.6 7.55 -377.4 7.95 -377.4 8.4 -377.25 8.4 -377.05 8.6 -377.25 8.8 -377.6 9.0 -377.05 9.4 -377.4 9.2 -376.7 9.8 -376.0 10.2 -376.0 10.4 -374.1 14.05 -373.95 14.5 -373.95 14.7 -374.3 15.5 -374.45 16.55 -374.1 17.55 -373.6 18.35 -372.75 19.4 -368.25 22.05 -358.2 25.35 -344.35 28.6 -317.55 32.85 -261.7 38.6 -237.1 40.25 -212.35 41.45 -163.9 43.1 -131.2 43.1 -112.15 42.5 -89.15 40.45 -76.2 38.8 -31.05 34.1 4.25 31.65 44.05 30.25 65.7 30.05 112.75 30.8 151.5 32.65 193.35 35.95 283.5 45.75 319.15 48.0 337.85 47.8 352.9 46.6 359.15 45.55 369.35 43.1 376.75 40.05 381.95 36.35 385.05 32.65 385.9 30.8 386.8 26.95 386.8 25.15 386.1 21.65 385.05 18.6 382.3 14.05 381.95 12.85 380.2 8.6 380.55 9.6 380.75 10.8 380.75 13.05 380.05 11.4 380.2 12.0 380.2 13.25 379.85 14.05 378.8 11.6 378.8 12.85 378.3 12.25 376.55 13.45 376.25 14.05 376.4 13.45 376.25 12.65 375.9 12.0 375.55 11.2 374.5 10.0 374.15 9.2 374.0 8.6 373.8 9.8 374.0 11.0 373.65 9.0 373.65 10.0 373.45 10.8 372.75 10.0 372.4 9.8 372.4 10.4 371.55 9.4 371.4 10.2 371.4 11.0 370.7 9.8 370.7 10.6 370.85 11.2 369.15 11.0 369.15 11.6 369.35 11.8 369.15 12.25 367.95 11.8 365.9 10.0 364.5 7.15 364.15 5.5 364.15 4.1 364.3 2.65 362.4 6.95 362.05 5.1 362.05 5.7 361.75 6.1 361.4 5.7 361.2 5.3 361.05 5.3 360.35 5.5 359.65 5.9 359.65 4.9 359.5 4.1 357.25 4.5 357.55 4.3 358.1 4.1 355.3 3.25 355.15 3.05 355.15 2.85 355.85 2.65 360.85 2.65 361.2 2.45 361.2 2.05 360.85 1.6 359.8 0.8 358.45 -1.45 357.9 -2.5 356.2 -7.4 354.45 -6.55 354.1 -7.4 354.3 -7.4 354.1 -7.6 353.95 -7.6 353.75 -7.4 353.6 -7.4 353.95 -8.0 353.75 -7.8 353.75 -8.2 352.2 -8.0 350.45 -8.15 351.25 -7.9 351.5 -7.8 M364.3 2.65 L364.65 2.05 M350.45 -8.15 L350.3 -8.2 351.25 -7.9 M374.0 8.6 L374.3 6.35 374.0 7.55 374.0 8.6 M379.35 6.75 L380.2 8.6 M378.5 8.6 L380.05 11.4 M378.8 11.6 L378.5 11.0 M259.3 -17.8 L259.1 -18.2 M274.5 -17.0 L273.3 -18.8 274.35 -17.0 274.5 -17.0 M256.35 -20.25 L256.5 -19.65 256.85 -19.0 256.35 -20.25 M256.5 -18.6 L256.35 -18.6 M248.2 -21.05 L248.05 -22.1 M189.2 -32.5 L188.7 -33.1 187.8 -33.5 186.95 -33.75 189.9 -31.9 189.2 -32.5 M193.35 -29.65 L193.7 -28.65 193.55 -29.25 193.35 -29.65 M186.1 -33.3 L185.05 -33.5 M180.9 -30.65 L180.55 -31.25 M184.55 -27.4 L183.3 -28.25 181.25 -30.05 180.9 -30.65 180.9 -28.85 180.7 -27.6 180.2 -26.2 178.5 -28.85 178.8 -27.2 179.0 -25.35 176.9 -27.0 177.45 -26.2 177.45 -25.35 177.25 -24.55 176.9 -23.75 172.95 -20.65 169.5 -18.6 164.45 -16.75 159.1 -16.15 145.65 -16.55 145.95 -16.15 145.75 -15.95 145.6 -15.95 144.9 -16.55 145.65 -16.55 145.6 -16.55 145.1 -17.0 144.4 -17.4 143.5 -17.6 143.15 -17.6 142.85 -17.4 142.5 -17.0 142.35 -16.15 141.65 -17.2 140.95 -17.8 141.3 -16.75 141.65 -14.7 141.65 -14.1 141.15 -15.95 141.15 -14.95 141.3 -14.1 141.15 -12.45 140.55 -13.9 140.45 -13.7 140.1 -13.3 139.75 -13.1 139.4 -13.3 139.05 -13.3 138.7 -13.7 138.35 -13.9 138.0 -14.5 138.0 -15.55 137.85 -17.0 136.8 -19.45 135.95 -20.45 136.45 -19.0 136.8 -17.6 137.0 -16.15 136.8 -14.7 136.45 -14.7 136.45 -14.95 136.3 -15.15 136.1 -15.15 136.1 -13.7 135.6 -14.5 135.4 -12.9 135.25 -12.25 135.25 -11.45 134.75 -12.25 134.2 -8.2 134.2 -9.8 133.85 -10.2 133.15 -10.2 133.35 -7.4 132.85 -8.4 132.65 -9.25 132.3 -9.45 132.3 -9.25 132.15 -9.25 131.95 -9.6 131.45 -12.45 131.1 -13.3 130.6 -13.9 130.4 -13.7 129.9 -12.9 128.0 -8.6 127.65 -8.4 127.3 -8.4 126.75 -9.25 126.6 -9.6 126.25 -9.8 125.75 -9.8 122.95 -8.0 112.25 -4.5 102.05 -2.7 83.0 -0.85 60.5 0.2 26.9 -0.2 -7.85 -2.25 -25.0 -4.1 -56.85 -9.25 -64.1 -10.85 -83.15 -16.55 -88.65 -18.6 -95.4 -21.9 -99.55 -22.3 -103.5 -21.5 -108.9 -18.8 -112.15 -16.75 -116.3 -13.5 -116.65 -13.3 -116.85 -13.3 -116.65 -16.75 -117.55 -15.95 -116.85 -17.2 -117.35 -16.55 -117.55 -16.75 -116.5 -18.6 -117.7 -17.2 -117.2 -20.65 -117.7 -19.45 -118.4 -18.4 -120.3 -16.55 -119.8 -17.4 -119.25 -18.0 -118.55 -19.85 -117.9 -23.55 -119.8 -19.25 -121.35 -17.6 -122.4 -17.2 -123.4 -17.0 -122.05 -18.0 -119.8 -20.85 -118.9 -22.7 -119.95 -21.5 -121.15 -20.45 -123.95 -18.6 -129.8 -15.95 -129.45 -16.55 -128.8 -17.2 -129.65 -16.75 -128.8 -17.8 -127.75 -18.6 -131.05 -18.4 -132.05 -18.6 -130.7 -20.25 -132.6 -18.8 -131.55 -20.05 -130.45 -20.55 -130.35 -20.65 -130.15 -20.65 -130.0 -20.95 -128.6 -21.05 -130.15 -20.65 -130.7 -20.25 -130.45 -20.55 -130.15 -20.65 M197.35 -26.2 L197.35 -26.8 197.35 -27.0 197.5 -27.85 197.35 -26.8 M197.5 -24.95 L198.05 -24.75 197.35 -26.2 197.5 -24.95 M140.55 -13.9 L140.25 -14.5 137.85 -22.5 140.25 -17.2 140.6 -15.95 140.6 -14.1 140.55 -13.9 M-117.35 -27.4 L-118.9 -22.7 -118.2 -23.75 -117.7 -24.75 -117.35 -27.4 M-161.5 -31.25 L-160.45 -32.3 -161.85 -31.45 -162.85 -30.45 -161.5 -31.25 M-157.7 -33.1 L-158.35 -32.5 -158.7 -31.9 -158.0 -32.3 -157.7 -33.1 M-155.95 -32.9 L-155.75 -33.1 M-136.55 -20.45 L-136.2 -20.65 -135.85 -21.05 M-140.2 -22.3 L-138.8 -24.35 M-169.8 -35.55 L-171.35 -35.15 -172.75 -34.35 -173.25 -33.75 M-301.8 -41.9 L-301.65 -42.75 M-311.65 -43.75 L-311.65 -45.0 M-317.55 -39.05 L-317.7 -37.4 -317.55 -38.25 -317.55 -39.05 M-384.85 -13.3 L-384.15 -13.5 -383.3 -13.5 M-380.35 -13.9 L-380.0 -13.9" fill="none" stroke="#010101" stroke-linecap="round" stroke-linejoin="round" stroke-width="0.5"/>
    <path d="M193.55 -36.6 L194.9 -37.0 195.25 -36.8 195.45 -36.6 195.45 -36.2 194.75 -35.8 193.35 -35.8 194.4 -35.35 195.1 -34.95 195.1 -34.55 193.55 -33.75 192.5 -33.75 191.65 -33.95 191.3 -34.15 191.3 -34.35 191.45 -34.75 191.95 -35.15 191.3 -34.95 190.6 -35.15 191.3 -35.55 191.95 -35.55 191.8 -36.0 191.8 -36.2 192.15 -36.4 192.65 -36.2 193.0 -36.6 193.2 -36.6 193.2 -36.2 193.55 -36.6" fill="#ed8547" fill-rule="evenodd" stroke="none"/>
    <path d="M193.55 -36.6 L194.9 -37.0 195.25 -36.8 195.45 -36.6 195.45 -36.2 194.75 -35.8 193.55 -35.8 193.35 -35.8 194.4 -35.35 195.1 -34.95 195.1 -34.55 193.55 -33.75 192.5 -33.75 191.65 -33.95 191.3 -34.15 191.3 -34.35 191.45 -34.75 191.95 -35.15 191.3 -34.95 190.6 -35.15 191.3 -35.55 191.95 -35.55 191.8 -36.0 191.8 -36.2 192.15 -36.4 192.65 -36.2 193.0 -36.6 193.2 -36.6 193.2 -36.2 193.55 -36.6 Z" fill="none" stroke="#010101" stroke-linecap="round" stroke-linejoin="round" stroke-width="0.5"/>
    <path d="M194.55 -31.9 L194.75 -31.25 194.4 -28.85 194.05 -27.4 193.55 -26.8 193.9 -33.75 194.55 -31.9" fill="#3c6435" fill-rule="evenodd" stroke="none"/>
    <path d="M193.9 -33.75 L194.55 -31.9 194.75 -31.25 194.4 -28.85 194.05 -27.4 193.55 -26.8" fill="none" stroke="#010101" stroke-linecap="round" stroke-linejoin="round" stroke-width="0.5"/>
    <path d="M194.75 -31.25 L194.55 -31.7 194.65 -31.7 194.75 -31.25 M194.75 -31.9 L194.65 -31.7 194.55 -31.9 194.45 -31.95 194.4 -32.1 Q194.55 -31.95 194.75 -31.9 M193.9 -31.9 L193.35 -31.9 193.35 -32.1 193.55 -32.3 194.05 -32.3 194.45 -31.95 194.55 -31.7 193.9 -31.7 193.9 -31.9" fill="#3c6435" fill-rule="evenodd" stroke="none"/>
    <path d="M193.9 -31.9 L193.9 -31.7 194.55 -31.7 194.65 -31.7 194.55 -31.9 194.35 -32.05 194.05 -32.3 193.55 -32.3 193.35 -32.1 193.35 -31.9 193.9 -31.9 M194.75 -31.25 L194.65 -31.7 194.75 -31.9 194.35 -32.05" fill="none" stroke="#010101" stroke-linecap="round" stroke-linejoin="round" stroke-width="0.5"/>
    <path d="M-286.05 5.9 L-285.75 5.1 -284.15 3.65 -283.8 3.45 -283.8 3.85 -277.75 7.75 -270.35 11.0 -252.35 16.55 -198.0 28.6 -186.05 30.25 -168.4 31.45 -144.7 32.05 -119.8 32.05 -63.25 30.8 -33.65 29.45 26.4 24.5 55.8 21.05 84.35 17.15 111.7 12.45 155.45 3.85 196.65 -2.7 227.6 -6.15 248.9 -7.6 271.4 -8.4 289.4 -8.2 317.45 -4.3 327.65 -3.7 337.0 -4.75 334.75 1.2 333.85 2.65 340.1 -1.05 339.6 -0.2 339.25 0.6 339.05 1.4 340.25 0.4 345.3 -2.25 342.0 4.1 338.0 9.8 335.75 12.25 331.95 15.3 327.65 17.35 332.15 15.9 336.3 13.65 340.25 10.4 344.25 6.35 341.15 13.65 344.25 10.6 347.35 8.8 347.35 11.2 350.5 11.2 350.5 11.6 350.15 12.0 348.75 13.85 348.6 14.25 348.4 14.9 349.8 14.5 351.0 13.65 352.2 13.25 352.9 13.25 353.6 13.65 353.6 14.05 351.85 17.35 351.5 18.6 353.05 19.4 356.55 20.4 360.15 21.05 363.8 20.85 369.35 19.4 372.95 17.75 376.25 15.5 379.15 12.85 379.5 13.25 379.5 12.45 379.7 12.45 380.55 14.5 380.9 13.85 380.9 12.45 380.75 11.8 381.4 13.45 381.4 11.8 381.25 10.4 381.4 10.0 383.0 14.5 385.75 19.0 386.25 20.4 387.5 25.55 387.5 27.4 386.6 31.25 385.75 33.05 382.65 36.75 377.45 40.45 370.0 43.5 359.8 46.0 353.6 47.0 338.55 48.25 319.85 48.45 284.2 46.2 194.05 36.35 152.15 33.05 113.45 31.25 89.4 30.6 44.75 30.6 4.95 32.05 -30.35 34.5 -75.5 39.2 -95.2 41.7 -111.45 42.9 -130.5 43.5 -163.2 43.5 -211.65 41.9 -236.4 40.65 -261.0 39.0 -316.85 33.3 -343.65 29.0 -357.5 25.75 -367.55 22.45 -372.05 19.8 -372.9 18.8 -373.45 17.95 -373.75 16.95 -373.6 16.1 -373.25 15.1 -373.25 14.9 -373.45 14.5 -375.15 11.2 -375.35 10.8 -375.35 10.6 -376.7 9.8 -376.35 9.8 -376.9 9.4 -376.55 9.2 -376.35 9.0 -376.55 8.8 -376.7 8.8 -376.7 8.4 -376.9 7.95 -377.05 7.75 -377.4 7.75 -378.1 7.55 -381.05 7.55 -382.1 6.95 -382.25 6.55 -384.0 -0.85 -384.35 -2.05 -384.65 -2.25 -385.2 -2.9 -385.2 -2.5 -386.75 -6.8 -386.05 -6.35 -386.4 -7.0 -386.4 -7.4 -386.75 -8.6 -386.4 -8.6 -386.4 -9.6 -386.25 -9.8 -385.35 -9.8 -383.65 -9.05 -383.65 -9.25 -382.95 -8.6 -382.95 -8.85 -383.3 -9.05 -382.95 -9.05 Q-382.75 -9.1 -382.6 -9.25 L-382.75 -9.45 -382.1 -9.6 -382.25 -9.8 -382.4 -9.8 -382.75 -10.0 -382.1 -10.2 -381.55 -10.2 -382.25 -10.85 -381.75 -10.85 -381.75 -11.25 -382.1 -11.65 -380.85 -11.65 -381.2 -12.45 -381.9 -12.9 -382.6 -13.1 -382.25 -13.1 -381.05 -12.7 -381.9 -13.7 -380.35 -13.1 -380.85 -13.5 -378.95 -13.1 -379.15 -13.3 -379.3 -13.3 -379.65 -13.5 -378.25 -13.5 -378.95 -14.1 -379.65 -14.95 -380.15 -15.95 -380.5 -17.0 -379.5 -15.35 -377.75 -14.5 -378.1 -14.7 -378.25 -14.95 -376.9 -15.15 -375.0 -15.75 -374.8 -15.55 -374.8 -14.3 -374.65 -14.3 -374.3 -14.5 -372.55 -16.15 -371.2 -18.0 -370.5 -17.8 -370.15 -17.8 -369.6 -18.0 -369.1 -18.0 -368.95 -18.4 -368.25 -18.8 -367.7 -18.8 -360.1 -19.85 -359.95 -17.6 -359.4 -15.35 -357.5 -10.85 -356.65 -9.6 -353.55 -6.35 -348.0 -2.7 -338.15 1.2 -319.95 4.5 -307.7 5.1 -309.1 0.6 -308.4 1.2 -307.7 1.4 -307.7 -1.05 -306.3 -0.2 -302.5 2.65 -300.1 3.45 -296.45 5.7 -293.5 8.15 -292.15 10.0 -292.3 6.75 -293.5 0.4 -294.75 -2.9 -291.6 2.25 -289.0 7.55 -289.0 2.65 -286.05 5.9 -286.05 6.1 -285.9 6.35 -286.05 5.9 -285.9 6.35 -286.05 6.1 -286.05 5.9" fill="#344c30" fill-rule="evenodd" stroke="none"/>
    <path d="M-286.05 5.9 L-289.0 2.65 -289.0 7.55 -291.6 2.25 -294.75 -2.9 -293.5 0.4 -292.3 6.75 -292.15 10.0 -293.5 8.15 -296.45 5.7 -300.1 3.45 -302.5 2.65 -306.3 -0.2 -307.7 -1.05 -307.7 1.4 -308.4 1.2 -309.1 0.6 -307.7 5.1 -319.95 4.5 -338.15 1.2 -348.0 -2.7 -353.55 -6.35 -356.65 -9.6 -357.5 -10.85 -359.4 -15.35 -359.95 -17.6 -360.1 -19.85 -367.7 -18.8 -368.25 -18.8 -368.95 -18.4 -369.1 -18.0 -369.6 -18.0 -370.15 -17.8 -370.5 -17.8 -371.2 -18.0 -372.55 -16.15 -374.3 -14.5 -374.65 -14.3 -374.8 -14.3 -374.8 -15.55 -375.0 -15.75 -376.9 -15.15 -378.25 -14.95 -378.1 -14.7 -377.75 -14.5 -379.5 -15.35 -380.5 -17.0 -380.15 -15.95 -379.65 -14.95 -378.95 -14.1 -378.25 -13.5 -379.65 -13.5 -379.3 -13.3 -379.15 -13.3 -378.95 -13.1 -380.85 -13.5 -380.35 -13.1 -381.9 -13.7 -381.05 -12.7 -382.25 -13.1 -382.6 -13.1 -381.9 -12.9 -381.2 -12.45 -380.85 -11.65 -382.1 -11.65 -381.75 -11.25 -381.75 -10.85 -382.25 -10.85 -381.55 -10.2 -382.1 -10.2 -382.75 -10.0 -382.4 -9.8 -382.25 -9.8 -382.1 -9.6 -382.75 -9.45 -382.6 -9.25 Q-382.75 -9.1 -382.95 -9.05 L-383.3 -9.05 -382.95 -8.85 -382.95 -8.6 -383.65 -9.25 -383.65 -9.05 -385.35 -9.8 -386.25 -9.8 -386.4 -9.6 -386.4 -8.6 -386.75 -8.6 -386.4 -7.4 -386.4 -7.0 -386.05 -6.35 -386.75 -6.8 -385.2 -2.5 -385.2 -2.9 -384.65 -2.25 -384.35 -2.05 -384.0 -0.85 -382.25 6.55 -382.1 6.95 -381.05 7.55 -378.1 7.55 -377.4 7.75 -377.05 7.75 -376.9 7.95 -376.7 8.4 -376.7 8.8 -376.55 8.8 -376.35 9.0 -376.55 9.2 -376.9 9.4 -376.35 9.8 -376.7 9.8 -375.35 10.6 -375.35 10.8 -375.15 11.2 -373.45 14.5 -373.25 14.9 -373.25 15.1 -373.6 16.1 -373.75 16.95 -373.45 17.95 -372.9 18.8 -372.05 19.8 -367.55 22.45 -357.5 25.75 -343.65 29.0 -316.85 33.3 -261.0 39.0 -236.4 40.65 -211.65 41.9 -163.2 43.5 -130.5 43.5 -111.45 42.9 -95.2 41.7 -75.5 39.2 -30.35 34.5 4.95 32.05 44.75 30.6 89.4 30.6 113.45 31.25 152.15 33.05 194.05 36.35 284.2 46.2 319.85 48.45 338.55 48.25 353.6 47.0 359.8 46.0 370.0 43.5 377.45 40.45 382.65 36.75 385.75 33.05 386.6 31.25 387.5 27.4 387.5 25.55 386.25 20.4 385.75 19.0 383.0 14.5 381.4 10.0 381.25 10.4 381.4 11.8 381.4 13.45 380.75 11.8 380.9 12.45 380.9 13.85 380.55 14.5 379.7 12.45 379.5 12.45 379.5 13.25 379.15 12.85 376.25 15.5 372.95 17.75 369.35 19.4 363.8 20.85 360.15 21.05 356.55 20.4 353.05 19.4 351.5 18.6 351.85 17.35 353.6 14.05 353.6 13.65 352.9 13.25 352.2 13.25 351.0 13.65 349.8 14.5 348.4 14.9 348.6 14.25 348.75 13.85 350.15 12.0 350.5 11.6 350.5 11.2 347.35 11.2 347.35 8.8 344.25 10.6 341.15 13.65 344.25 6.35 340.25 10.4 336.3 13.65 332.15 15.9 327.65 17.35 331.95 15.3 335.75 12.25 338.0 9.8 342.0 4.1 345.3 -2.25 340.25 0.4 339.05 1.4 339.25 0.6 339.6 -0.2 340.1 -1.05 333.85 2.65 334.75 1.2 337.0 -4.75 327.65 -3.7 317.45 -4.3 289.4 -8.2 271.4 -8.4 248.9 -7.6 227.6 -6.15 196.65 -2.7 155.45 3.85 111.7 12.45 84.35 17.15 55.8 21.05 26.4 24.5 -33.65 29.45 -63.25 30.8 -119.8 32.05 -144.7 32.05 -168.4 31.45 -186.05 30.25 -198.0 28.6 -252.35 16.55 -270.35 11.0 -277.75 7.75 -283.8 3.85 -283.8 3.45 -284.15 3.65 -285.75 5.1 -286.05 5.9 -285.9 6.35 -286.05 6.1 -286.05 5.9 M380.75 11.8 L380.55 11.2 380.55 11.4 380.75 11.8 M-384.15 -12.9 L-383.45 -13.1 -382.6 -13.1 M-383.65 -9.25 L-384.15 -10.0" fill="none" stroke="#010101" stroke-linecap="round" stroke-linejoin="round" stroke-width="0.5"/>
  </g>
</svg>
