<?xml version="1.0" encoding="UTF-8" standalone="no"?>
<svg xmlns:xlink="http://www.w3.org/1999/xlink" height="51.45px" width="65.3px" xmlns="http://www.w3.org/2000/svg">
  <g transform="matrix(1.0, 0.0, 0.0, 1.0, 32.65, 25.7)">
    <path d="M20.1 4.5 L32.15 5.05 18.0 11.5 29.95 25.25 -32.15 25.25 -16.85 6.4 -30.9 -2.3 -7.95 3.4 -9.35 -4.3 -4.4 -1.0 -4.1 -18.5 3.0 -5.45 14.65 -25.2 9.4 -0.6 19.05 -11.95 15.7 0.25 31.2 -8.75 20.1 4.5" fill="#ffffff" fill-rule="evenodd" stroke="none"/>
    <path d="M20.1 4.5 L32.15 5.05 18.0 11.5 29.95 25.25 -32.15 25.25 -16.85 6.4 -30.9 -2.3 -7.95 3.4 -9.35 -4.3 -4.4 -1.0 -4.1 -18.5 3.0 -5.45 14.65 -25.2 9.4 -0.6 19.05 -11.95 15.7 0.25 31.2 -8.75 20.1 4.5 Z" fill="none" stroke="#f5b749" stroke-linecap="round" stroke-linejoin="round" stroke-width="1.0"/>
  </g>
</svg>
